<svg width="24" height="24" viewBox="0 0 24 24" fill="none" xmlns="http://www.w3.org/2000/svg">
<path d="M21.5085 3.48711L20.5148 2.49336C20.4773 2.45586 20.4304 2.43945 20.3812 2.43945C20.332 2.43945 20.2851 2.4582 20.2476 2.49336L18.464 4.27695C17.6886 3.75161 16.7732 3.47152 15.8366 3.47305C14.6366 3.47305 13.4366 3.93008 12.5202 4.84648L10.132 7.23477C10.0971 7.27001 10.0775 7.31759 10.0775 7.36719C10.0775 7.41678 10.0971 7.46437 10.132 7.49961L16.4999 13.8676C16.5374 13.9051 16.5843 13.9215 16.6335 13.9215C16.6804 13.9215 16.7296 13.9027 16.7671 13.8676L19.1554 11.4793C20.7702 9.86211 20.9601 7.36133 19.7249 5.53789L21.5085 3.7543C21.5812 3.6793 21.5812 3.55977 21.5085 3.48711ZM18.0257 10.352L16.6335 11.7441L12.2554 7.36602L13.6476 5.97383C14.2312 5.39023 15.0093 5.0668 15.8366 5.0668C16.664 5.0668 17.4398 5.38789 18.0257 5.97383C18.6093 6.55742 18.9327 7.33555 18.9327 8.16289C18.9327 8.99023 18.6093 9.76602 18.0257 10.352ZM13.5679 12.8129C13.5327 12.778 13.4851 12.7584 13.4355 12.7584C13.3859 12.7584 13.3383 12.778 13.3031 12.8129L11.7421 14.3738L9.62571 12.2574L11.189 10.6941C11.2616 10.6215 11.2616 10.502 11.189 10.4293L10.3359 9.57617C10.3006 9.54128 10.253 9.5217 10.2034 9.5217C10.1539 9.5217 10.1063 9.54128 10.071 9.57617L8.50774 11.1395L7.49993 10.1316C7.48243 10.1141 7.46158 10.1003 7.43863 10.0911C7.41567 10.0818 7.39108 10.0773 7.36633 10.0777C7.31946 10.0777 7.27024 10.0965 7.23274 10.1316L4.8468 12.5199C3.23196 14.1371 3.04212 16.6379 4.27727 18.4613L2.49368 20.2449C2.45878 20.2802 2.43921 20.3278 2.43921 20.3773C2.43921 20.4269 2.45878 20.4745 2.49368 20.5098L3.48743 21.5035C3.52493 21.541 3.5718 21.5574 3.62102 21.5574C3.67024 21.5574 3.71712 21.5387 3.75462 21.5035L5.53821 19.7199C6.32805 20.2566 7.2468 20.5238 8.16555 20.5238C9.36555 20.5238 10.5656 20.0668 11.482 19.1504L13.8702 16.7621C13.9429 16.6895 13.9429 16.5699 13.8702 16.4973L12.8624 15.4895L14.4257 13.9262C14.4984 13.8535 14.4984 13.734 14.4257 13.6613L13.5679 12.8129ZM10.3523 18.0254C10.0654 18.3137 9.72426 18.5423 9.34853 18.698C8.97279 18.8537 8.56992 18.9334 8.16321 18.9324C7.33587 18.9324 6.56008 18.6113 5.97415 18.0254C5.68582 17.7385 5.45721 17.3974 5.30153 17.0216C5.14584 16.6459 5.06617 16.243 5.06712 15.8363C5.06712 15.009 5.38821 14.2332 5.97415 13.6473L7.36633 12.2551L11.7445 16.6332L10.3523 18.0254Z" fill="#222222"/>
</svg>
