<svg width="16" height="16" viewBox="0 0 16 16" fill="none" xmlns="http://www.w3.org/2000/svg">
<g clip-path="url(#clip0_775_216)">
<path d="M14 7.99959C14.0019 9.19075 13.6476 10.3553 12.9827 11.3436C12.4343 12.1616 11.6928 12.8319 10.8237 13.2951C9.95464 13.7584 8.98482 14.0003 8 13.9996C7.01518 14.0003 6.04536 13.7584 5.1763 13.2951C4.30724 12.8319 3.56572 12.1616 3.01733 11.3436C2.49515 10.5652 2.1626 9.67529 2.04634 8.74521C1.93007 7.81514 2.03333 6.87075 2.34783 5.98777C2.66233 5.1048 3.17933 4.30778 3.85738 3.66062C4.53543 3.01346 5.35566 2.53416 6.25234 2.26114C7.14901 1.98813 8.09718 1.92898 9.02083 2.08846C9.94448 2.24793 10.8179 2.62158 11.5711 3.17946C12.3244 3.73735 12.9364 4.46394 13.3582 5.30099C13.78 6.13804 13.9998 7.06227 14 7.99959Z" stroke="#222222"/>
<path d="M8.66675 6C8.66675 6.17681 8.59651 6.34638 8.47149 6.4714C8.34646 6.59643 8.17689 6.66667 8.00008 6.66667V8C8.53052 8 9.03922 7.78929 9.4143 7.41421C9.78937 7.03914 10.0001 6.53043 10.0001 6H8.66675ZM8.00008 6.66667C7.82327 6.66667 7.6537 6.59643 7.52868 6.4714C7.40365 6.34638 7.33342 6.17681 7.33342 6H6.00008C6.00008 6.53043 6.2108 7.03914 6.58587 7.41421C6.96094 7.78929 7.46965 8 8.00008 8V6.66667ZM7.33342 6C7.33342 5.82319 7.40365 5.65362 7.52868 5.5286C7.6537 5.40357 7.82327 5.33333 8.00008 5.33333V4C7.46965 4 6.96094 4.21071 6.58587 4.58579C6.2108 4.96086 6.00008 5.46957 6.00008 6H7.33342ZM8.00008 5.33333C8.17689 5.33333 8.34646 5.40357 8.47149 5.5286C8.59651 5.65362 8.66675 5.82319 8.66675 6H10.0001C10.0001 5.46957 9.78937 4.96086 9.4143 4.58579C9.03922 4.21071 8.53052 4 8.00008 4V5.33333ZM3.44408 11.904L2.80475 11.714L2.70142 12.0627L2.93808 12.338L3.44408 11.904ZM12.5561 11.904L13.0627 12.338L13.2987 12.0627L13.1954 11.714L12.5561 11.904ZM6.00008 10.6667H10.0001V9.33333H6.00008V10.6667ZM6.00008 9.33333C5.28212 9.33311 4.58327 9.5647 4.00753 9.99366C3.4318 10.4226 3.00994 11.026 2.80475 11.714L4.08275 12.094C4.20606 11.6814 4.45928 11.3196 4.80473 11.0624C5.15018 10.8052 5.56942 10.6664 6.00008 10.6667V9.33333ZM8.00008 13.3333C7.23041 13.3342 6.46971 13.1681 5.77049 12.8464C5.07127 12.5247 4.45018 12.0551 3.95008 11.47L2.93808 12.338C3.56334 13.069 4.33967 13.6557 5.21357 14.0578C6.08747 14.4598 7.03815 14.6675 8.00008 14.6667V13.3333ZM10.0001 10.6667C10.9047 10.6667 11.6707 11.268 11.9174 12.0947L13.1954 11.714C12.9903 11.0261 12.5678 10.4228 11.9922 9.99385C11.4166 9.56492 10.7179 9.33325 10.0001 9.33333V10.6667ZM12.0501 11.47C11.55 12.0551 10.9289 12.5247 10.2297 12.8464C9.53046 13.1681 8.76976 13.3342 8.00008 13.3333V14.6667C8.96202 14.6675 9.9127 14.4598 10.7866 14.0578C11.6605 13.6557 12.4375 13.069 13.0627 12.338L12.0501 11.47Z" fill="#222222"/>
</g>
<defs>
<clipPath id="clip0_775_216">
<rect width="16" height="16" fill="white"/>
</clipPath>
</defs>
</svg>
