<svg width="32" height="32" viewBox="0 0 32 32" fill="none" xmlns="http://www.w3.org/2000/svg">
<path d="M25.3333 11.9999C25.3339 10.3931 24.9197 8.81332 24.1307 7.41357C23.3417 6.01381 22.2048 4.84144 20.8298 4.00995C19.4549 3.17846 17.8886 2.71601 16.2825 2.66736C14.6765 2.61872 13.0851 2.98553 11.6623 3.73229C10.2396 4.47904 9.03377 5.58045 8.16153 6.9299C7.28929 8.27934 6.78021 9.83112 6.68356 11.435C6.58691 13.0389 6.90596 14.6406 7.60984 16.085C8.31371 17.5294 9.37857 18.7677 10.7013 19.6799L6.66666 26.6665L9.67466 26.7905L11.2853 29.3332L15.9067 21.3279L16 21.3332C16.0467 21.3359 16.0613 21.3292 16.0933 21.3279L20.7147 29.3332L22.3573 26.8452L25.3333 26.6665L21.2987 19.6799C22.5435 18.8228 23.5612 17.6759 24.2641 16.3379C24.9669 15 25.3339 13.5112 25.3333 11.9999ZM9.33332 11.9999C9.33332 10.6813 9.72432 9.39238 10.4569 8.29606C11.1894 7.19973 12.2306 6.34525 13.4488 5.84066C14.6669 5.33608 16.0074 5.20406 17.3006 5.46129C18.5938 5.71853 19.7817 6.35346 20.714 7.28581C21.6464 8.21816 22.2813 9.40605 22.5386 10.6993C22.7958 11.9925 22.6638 13.3329 22.1592 14.5511C21.6546 15.7693 20.8001 16.8104 19.7038 17.543C18.6075 18.2755 17.3185 18.6665 16 18.6665C14.2319 18.6665 12.5362 17.9641 11.2859 16.7139C10.0357 15.4637 9.33332 13.768 9.33332 11.9999Z" fill="#407BFF"/>
<path d="M16 16C18.2091 16 20 14.2091 20 12C20 9.79086 18.2091 8 16 8C13.7909 8 12 9.79086 12 12C12 14.2091 13.7909 16 16 16Z" fill="#407BFF"/>
</svg>
