<svg width="16" height="16" viewBox="0 0 16 16" fill="none" xmlns="http://www.w3.org/2000/svg">
<g clip-path="url(#clip0_773_184)">
<path d="M1 14C1 14.1406 1.02604 14.2708 1.07812 14.3906C1.13021 14.5104 1.20052 14.6146 1.28906 14.7031C1.3776 14.7917 1.48438 14.8646 1.60938 14.9219C1.73438 14.9792 1.86458 15.0052 2 15H7L9.00781 16H2C1.72396 16 1.46615 15.9479 1.22656 15.8438C0.986979 15.7396 0.773438 15.5964 0.585938 15.4141C0.398438 15.2318 0.255208 15.0208 0.15625 14.7812C0.0572917 14.5417 0.00520833 14.2812 0 14V2C0 1.74479 0.0546875 1.4974 0.164062 1.25781C0.273438 1.01823 0.421875 0.804688 0.609375 0.617188C0.796875 0.429688 1.01042 0.28125 1.25 0.171875C1.48958 0.0625 1.73958 0.00520833 2 0H13V5.32031L12 4.82031V1H2C1.88021 1 1.76042 1.02865 1.64062 1.08594C1.52083 1.14323 1.41406 1.22135 1.32031 1.32031C1.22656 1.41927 1.15104 1.52604 1.09375 1.64062C1.03646 1.75521 1.00521 1.875 1 2V12.2812C1.15104 12.1927 1.3099 12.125 1.47656 12.0781C1.64323 12.0312 1.81771 12.0052 2 12H6V13H2C1.85938 13 1.72917 13.026 1.60938 13.0781C1.48958 13.1302 1.38542 13.2005 1.29688 13.2891C1.20833 13.3776 1.13542 13.4844 1.07812 13.6094C1.02083 13.7344 0.994792 13.8646 1 14ZM16 7.92969V13.8828L11.5 16.125L7 13.8828V7.92969L11.5 5.6875L16 7.92969ZM11.5 6.80469L8.61719 8.24219L11.5 9.67969L14.3828 8.24219L11.5 6.80469ZM8 13.2656L11 14.7578V10.5469L8 9.04688V13.2656ZM15 13.2656V9.04688L12 10.5469V14.7578L15 13.2656Z" fill="#222222"/>
</g>
<defs>
<clipPath id="clip0_773_184">
<rect width="16" height="16" fill="white"/>
</clipPath>
</defs>
</svg>
