<svg width="26" height="30" viewBox="0 0 26 30" fill="none" xmlns="http://www.w3.org/2000/svg">
<path d="M18.3333 4.33594C21.2333 4.35194 22.804 4.48127 23.828 5.50527C25 6.67727 25 8.5626 25 12.3333V20.3333C25 24.1053 25 25.9906 23.828 27.1626C22.6573 28.3333 20.7707 28.3333 17 28.3333H9C5.22933 28.3333 3.34267 28.3333 2.172 27.1626C1 25.9893 1 24.1053 1 20.3333V12.3333C1 8.5626 1 6.67727 2.172 5.50527C3.196 4.48127 4.76667 4.35194 7.66667 4.33594" stroke="#2ECC71" stroke-width="2"/>
<path d="M7.66668 17.6667H18.3333M6.33334 13H19.6667M9.00001 22.3333H17" stroke="#2ECC71" stroke-width="2" stroke-linecap="round"/>
<path d="M7.66666 3.66699C7.66666 3.13656 7.87737 2.62785 8.25244 2.25278C8.62752 1.87771 9.13622 1.66699 9.66666 1.66699H16.3333C16.8638 1.66699 17.3725 1.87771 17.7475 2.25278C18.1226 2.62785 18.3333 3.13656 18.3333 3.66699V5.00033C18.3333 5.53076 18.1226 6.03947 17.7475 6.41454C17.3725 6.78961 16.8638 7.00033 16.3333 7.00033H9.66666C9.13622 7.00033 8.62752 6.78961 8.25244 6.41454C7.87737 6.03947 7.66666 5.53076 7.66666 5.00033V3.66699Z" stroke="#2ECC71" stroke-width="2"/>
</svg>
