<svg width="32" height="32" viewBox="0 0 32 32" fill="none" xmlns="http://www.w3.org/2000/svg">
<path d="M16 1.46582C7.973 1.46582 1.466 7.97282 1.466 15.9998C1.466 24.0268 7.973 30.5338 16 30.5338C24.027 30.5338 30.534 24.0268 30.534 15.9998C30.534 7.97282 24.027 1.46582 16 1.46582ZM19.158 23.2688C19.078 23.3318 18.975 23.3988 19.053 23.4748C19.131 23.5528 18.963 23.6048 18.963 23.6448C18.963 23.6848 19.067 23.8908 19.015 23.9808C18.963 24.0728 18.925 24.2038 18.885 24.2808C18.845 24.3588 18.755 24.4368 18.781 24.5538C18.807 24.6698 18.678 24.6308 18.678 24.7478C18.678 24.8628 18.794 24.8118 18.768 24.9548C18.743 25.0988 18.678 25.1378 18.678 25.2398C18.678 25.3438 18.742 25.4868 18.742 25.5258C18.742 25.5648 18.679 25.6958 18.588 25.7978C18.496 25.9018 18.433 25.9678 18.444 26.0308C18.458 26.0958 18.548 26.1748 18.534 26.2148C18.522 26.2518 18.406 26.3828 18.419 26.4748C18.433 26.5648 18.549 26.5268 18.574 26.5898C18.6 26.6548 18.419 26.7078 18.496 26.7728C18.574 26.8368 18.679 26.8228 18.652 26.9808C18.632 27.0928 18.716 27.1438 18.778 27.1788C17.888 27.4008 16.96 27.5318 16.001 27.5318C9.64 27.5328 4.465 22.3598 4.465 15.9998C4.465 13.9268 5.022 11.9848 5.983 10.3028C6.063 10.2608 6.12 10.2328 6.153 10.2408C6.219 10.2548 6.233 10.3458 6.337 10.3708C6.441 10.3978 6.532 10.2938 6.597 10.2548C6.661 10.2148 6.713 10.0598 6.647 10.0728C6.583 10.0858 6.414 10.0728 6.414 10.0728C6.414 10.0728 6.597 9.96882 6.597 9.90282C6.597 9.83682 6.622 9.73482 6.727 9.69582C6.829 9.65582 6.829 9.68182 6.764 9.83782C6.699 9.99382 6.894 9.92782 6.972 9.86382C7.05 9.79982 7.102 9.85082 7.244 9.75982C7.387 9.66782 7.387 9.61582 7.464 9.61582C7.544 9.61582 7.686 9.75882 7.764 9.70582C7.841 9.65582 8.064 9.77182 8.194 9.77182C8.322 9.77182 8.738 9.94182 8.817 9.94182C8.896 9.94182 9.129 10.0318 9.142 10.1998C9.155 10.3698 9.232 10.3558 9.31 10.3558C9.388 10.3558 9.57 10.4208 9.57 10.4858C9.57 10.5508 9.52 10.8108 9.65 10.8758C9.778 10.9398 9.896 11.0458 9.948 11.0188C10 10.9918 9.948 10.7848 9.884 10.7588C9.819 10.7318 9.857 10.6408 9.832 10.5888C9.806 10.5388 9.91 10.5388 9.949 10.6288C9.987 10.7188 10.091 10.8888 10.156 10.8888C10.22 10.8888 10.364 11.0438 10.324 11.1348C10.284 11.2248 10.364 11.3548 10.48 11.3548C10.597 11.3548 10.74 11.5378 10.793 11.5508C10.846 11.5638 10.91 11.6288 10.91 11.6678C10.91 11.7068 10.975 11.9278 10.975 12.0178C10.975 12.1078 10.935 12.4718 10.922 12.6148C10.909 12.7578 11.026 13.0048 11.156 13.1348C11.286 13.2648 11.402 13.5118 11.48 13.5648C11.56 13.6148 11.61 13.7588 11.727 13.7448C11.844 13.7328 11.922 13.8248 12.027 14.0048C12.13 14.1878 12.234 14.4848 12.312 14.5118C12.39 14.5378 12.52 14.6288 12.454 14.6938C12.39 14.7578 12.286 14.9018 12.404 14.9018C12.52 14.9018 12.559 14.8368 12.65 14.9548C12.74 15.0708 12.858 15.1348 12.844 15.2148C12.831 15.2918 12.948 15.3178 13 15.3308C13.052 15.3438 13.17 15.5778 13.286 15.4738C13.403 15.3698 13.131 15.2138 13.052 15.1478C12.974 15.0838 13.052 14.9408 12.87 14.7978C12.688 14.6548 12.714 14.5508 12.584 14.4478C12.454 14.3428 12.351 14.2518 12.48 14.1608C12.61 14.0708 12.623 14.2508 12.675 14.3688C12.727 14.4868 12.999 14.7208 13.115 14.8238C13.233 14.9278 13.442 15.2918 13.505 15.2918C13.568 15.2918 13.753 15.4998 13.753 15.4998C13.753 15.4998 13.856 15.6698 13.817 15.7198C13.777 15.7728 13.87 15.9678 13.961 16.0198C14.051 16.0718 14.417 16.2398 14.469 16.2668C14.521 16.2938 14.624 16.4868 14.769 16.4868C14.909 16.4868 15.015 16.5018 15.054 16.5408C15.094 16.5808 15.209 16.7358 15.288 16.6458C15.366 16.5538 15.378 16.5158 15.496 16.5158C15.614 16.5158 15.664 16.6058 15.729 16.6708C15.794 16.7358 15.976 16.9058 16.067 16.8928C16.157 16.8798 16.275 16.9968 16.34 16.9568C16.405 16.9168 16.508 16.9818 16.56 17.0088C16.613 17.0348 16.793 17.1268 16.78 17.2808C16.768 17.4378 16.884 17.4758 16.963 17.5148C17.041 17.5548 17.145 17.6448 17.211 17.7098C17.276 17.7718 17.418 17.7858 17.458 17.8248C17.498 17.8638 17.523 17.9418 17.64 17.8768C17.755 17.8128 17.73 17.6968 17.73 17.6968C17.73 17.6968 17.86 17.6698 17.925 17.7218C17.989 17.7718 18.029 17.9418 18.069 17.9678C18.106 17.9938 18.183 18.1878 18.131 18.3298C18.081 18.4748 18.093 18.6158 18.041 18.6158C17.988 18.6158 17.924 18.7858 17.845 18.8258C17.769 18.8638 17.56 19.0458 17.573 19.1108C17.586 19.1758 17.703 19.3708 17.677 19.4608C17.652 19.5528 17.483 19.6568 17.523 19.8008C17.561 19.9438 17.835 19.9828 17.846 20.1108C17.86 20.2428 18.056 20.5288 18.081 20.6578C18.106 20.7868 18.327 20.9298 18.327 21.1108C18.327 21.2948 18.639 21.4108 18.704 21.4228C18.767 21.4358 18.886 21.5528 18.976 21.5928C19.066 21.6328 19.146 21.7088 19.209 21.8128C19.272 21.9168 19.262 22.0748 19.262 22.1128C19.262 22.1528 19.222 22.5528 19.184 22.7868C19.144 23.0218 19.234 23.2038 19.157 23.2698L19.158 23.2688ZM10.766 11.1868C10.806 11.1998 10.883 11.2768 10.922 11.2768C10.962 11.2768 11.156 11.4338 11.208 11.4868C11.261 11.5368 11.261 11.6808 11.195 11.6938C11.129 11.7068 11.091 11.5508 11.078 11.4858C11.065 11.4208 10.935 11.4208 10.87 11.3818C10.805 11.3418 10.66 11.1518 10.766 11.1868ZM27.51 16.4098C27.366 16.5918 27.38 16.6818 27.315 16.6958C27.251 16.7088 27.38 16.7608 27.405 16.8898C27.427 17.0018 27.34 17.1138 27.468 17.2168C26.982 21.8368 23.758 25.6508 19.452 27.0038C19.445 26.9938 19.432 26.9788 19.432 26.9698C19.404 26.8918 19.404 26.7368 19.495 26.6848C19.585 26.6318 19.807 26.4518 19.858 26.4128C19.91 26.3728 19.988 26.1928 19.948 26.1658C19.911 26.1398 19.718 26.1658 19.688 26.1258C19.663 26.0878 19.663 26.0358 19.793 25.9458C19.923 25.8538 19.988 25.7228 20.04 25.6858C20.092 25.6458 20.195 25.5678 20.235 25.4758C20.273 25.3858 20.195 25.4358 20.117 25.4358C20.039 25.4358 20 25.2968 20 25.2298C20 25.1628 20.195 25.2558 20.34 25.2818C20.482 25.3058 20.416 25.2168 20.403 25.1398C20.39 25.0618 20.429 24.9298 20.508 24.9698C20.584 25.0098 20.988 24.9568 21.038 24.9438C21.091 24.9308 21.233 24.6978 21.285 24.6318C21.338 24.5668 21.349 24.5018 21.285 24.4638C21.22 24.4238 21.142 24.2798 21.117 24.2438C21.0848 24.1333 21.0803 24.0165 21.104 23.9038C21.129 23.8398 21.104 24.2798 21.284 24.3338C21.468 24.3838 21.571 24.4108 21.74 24.2538C21.91 24.0998 22.038 23.9938 22.052 23.8918C22.065 23.7878 22.104 23.6818 22.169 23.6458C22.233 23.6058 22.272 23.7488 22.349 23.5808C22.429 23.4108 22.506 23.4248 22.584 23.2828C22.661 23.1388 22.454 22.9578 22.608 22.8528C22.764 22.7498 23.038 22.6198 23.038 22.6198C23.038 22.6198 23.115 22.5798 23.271 22.5398C23.426 22.5028 23.595 22.5268 23.647 22.4498C23.697 22.3718 23.75 22.2038 23.827 22.1128C23.907 22.0208 23.997 21.8788 23.957 21.8128C23.919 21.7488 24.062 21.4628 24.049 21.3848C24.036 21.3068 23.919 21.1248 24.114 20.9688C24.309 20.8128 24.516 20.5768 24.53 20.5138C24.542 20.4488 24.7 20.1758 24.684 20.0438C24.672 19.9158 24.53 19.7598 24.439 19.7198C24.347 19.6838 24.153 19.6698 24.075 19.5668C23.997 19.4638 23.775 19.3588 23.698 19.3848C23.622 19.4108 23.491 19.4348 23.388 19.3698C23.283 19.3068 23.115 19.2268 23.05 19.1758C22.984 19.1258 22.816 19.0858 22.738 19.0858C22.66 19.0858 22.673 19.0328 22.556 19.1888C22.439 19.3448 22.556 19.3968 22.348 19.3688C22.138 19.3458 22.373 19.3318 22.492 19.1758C22.607 19.0208 22.478 18.9288 22.348 18.9688C22.218 19.0088 22.308 19.0858 22.101 19.1248C21.894 19.1638 21.894 19.0328 22.024 19.0078C22.154 18.9808 22.387 18.8638 22.387 18.8128C22.387 18.7598 22.36 18.6168 22.257 18.6168C22.154 18.6168 22.177 18.4868 22.023 18.3188C21.867 18.1488 21.673 18.0448 21.515 18.0688C21.361 18.0958 21.243 18.1348 21.165 17.9938C21.087 17.8498 20.995 17.8238 20.943 17.7468C20.893 17.6688 20.761 17.7468 20.723 17.7068C20.685 17.6668 20.683 17.6688 20.683 17.6688C20.683 17.6688 20.513 17.7088 20.606 17.5908C20.696 17.4738 20.734 17.2528 20.696 17.2658C20.656 17.2778 20.591 17.4608 20.526 17.4478C20.463 17.4348 20.513 17.4078 20.383 17.3308C20.253 17.2538 20.046 17.3178 20.046 17.3828C20.046 17.4478 19.981 17.4998 19.981 17.4998C19.981 17.4998 19.941 17.4618 19.903 17.3828C19.863 17.3048 19.683 17.2928 19.591 17.3698C19.501 17.4478 19.449 17.1738 19.384 17.1738C19.319 17.1738 19.19 17.2388 19.124 17.3578C19.06 17.4738 19.086 17.6428 19.032 17.6298C18.982 17.6168 18.969 17.3968 18.982 17.3178C18.994 17.2378 19.137 17.1098 19.032 17.0838C18.929 17.0578 18.772 17.2138 18.709 17.2268C18.5994 17.2686 18.5045 17.3416 18.436 17.4368C18.359 17.5398 18.32 17.6048 18.241 17.6438C18.164 17.6838 18.048 17.6438 18.074 17.6038C18.099 17.5658 17.852 17.4238 17.814 17.4738C17.774 17.5268 17.658 17.5658 17.541 17.6188C17.424 17.6718 17.319 17.5538 17.294 17.5018C17.269 17.4498 17.214 17.4378 17.204 17.2678C17.19 17.1008 17.23 16.9178 17.268 16.8148C17.306 16.7118 17.073 16.5028 16.982 16.5148C16.892 16.5298 16.8 16.6198 16.71 16.6048C16.618 16.5948 16.658 16.5678 16.515 16.5678C16.372 16.5678 16.488 16.5428 16.515 16.4248C16.539 16.3088 16.462 16.1518 16.605 16.0478C16.748 15.9438 16.697 15.6978 16.605 15.6848C16.515 15.6708 16.345 15.7248 16.229 15.7108C16.2023 15.7068 16.175 15.7098 16.1498 15.7195C16.1246 15.7292 16.1024 15.7452 16.0853 15.7661C16.0681 15.7869 16.0567 15.8119 16.0521 15.8385C16.0475 15.8651 16.0499 15.8924 16.059 15.9178C16.099 16.0348 15.995 16.1128 15.956 16.1008C15.917 16.0888 15.866 16.0228 15.723 16.1268C15.581 16.2288 15.529 16.1898 15.386 16.0738C15.243 15.9558 15.086 15.8398 15.061 15.6578C15.035 15.4778 15.021 15.2948 15.074 15.1908C15.124 15.0868 15.124 14.9058 15.048 14.8788C14.97 14.8548 15.138 14.7248 15.228 14.6988C15.331 14.659 15.4209 14.5915 15.488 14.5038C15.515 14.4518 15.645 14.4638 15.788 14.4638C15.93 14.4638 15.956 14.4638 16.098 14.5418C16.242 14.6198 16.268 14.5018 16.268 14.4638C16.268 14.4238 16.32 14.3468 16.476 14.3598C16.632 14.3728 16.852 14.3098 16.892 14.3478C16.932 14.3858 17.008 14.5428 17.086 14.4908C17.166 14.4408 17.19 14.3488 17.216 14.5058C17.242 14.6608 17.306 14.8958 17.426 14.9358C17.541 14.9738 17.476 15.1288 17.593 15.1418C17.708 15.1558 17.763 14.8968 17.723 14.8058C17.683 14.7158 17.606 14.4428 17.541 14.3778C17.476 14.3128 17.477 14.1438 17.605 14.0918C17.735 14.0398 18.045 13.7798 18.135 13.7018C18.228 13.6238 18.475 13.5588 18.397 13.4548C18.319 13.3508 18.293 13.2868 18.293 13.2078C18.293 13.1288 18.371 13.1558 18.41 13.2078C18.449 13.2598 18.604 13.1298 18.565 13.0648C18.527 13.0008 18.539 12.9098 18.63 12.9218C18.72 12.9348 18.746 12.8568 18.708 12.8048C18.668 12.7528 18.798 12.6878 18.89 12.7148C18.982 12.7398 19.215 12.7008 19.254 12.6488C19.291 12.5968 19.174 12.5448 19.174 12.4408C19.174 12.3358 19.33 12.2448 19.422 12.2308C19.512 12.2188 19.629 12.2308 19.642 12.1928C19.655 12.1528 19.786 12.0498 19.798 12.1408C19.812 12.2308 19.798 12.3878 19.902 12.3878C20.006 12.3878 20.134 12.2708 20.174 12.2578C20.212 12.2458 20.46 12.1938 20.512 12.1808C20.564 12.1678 20.875 12.1408 20.837 12.0508C20.797 11.9608 20.759 11.8708 20.719 11.8308C20.679 11.7908 20.642 11.8438 20.589 11.9088C20.539 11.9738 20.446 11.9738 20.421 11.9218C20.395 11.8718 20.433 11.7158 20.343 11.7668C20.25 11.8188 20.238 11.8708 20.185 11.8448C20.133 11.8188 20.082 11.7278 20.082 11.7278C20.082 11.7278 20.21 11.6638 20.119 11.5458C20.029 11.4288 19.899 11.4558 19.769 11.5208C19.639 11.5838 19.651 11.5708 19.496 11.6108C19.341 11.6508 19.262 11.6878 19.262 11.6878C19.262 11.6878 19.472 11.5578 19.562 11.4798C19.652 11.3998 19.77 11.3618 19.847 11.2838C19.925 11.2058 20.132 11.3238 20.132 11.3238C20.132 11.3238 20.237 11.2188 20.237 11.2838C20.237 11.3488 20.21 11.5178 20.287 11.5178C20.367 11.5178 20.587 11.4138 20.497 11.3878C20.405 11.3608 20.627 11.3878 20.717 11.3218C20.809 11.2568 20.911 11.2568 20.964 11.2318C21.016 11.2058 21.056 11.0888 21.146 11.0888C21.238 11.0888 21.276 11.2048 21.146 11.2828C21.016 11.3608 21.003 11.5558 20.938 11.6078C20.874 11.6578 20.912 11.7238 21.016 11.7108C21.12 11.6978 21.21 11.7238 21.302 11.6978C21.394 11.6718 21.445 11.7238 21.47 11.7628C21.495 11.8018 21.574 11.7228 21.574 11.7228C21.574 11.7228 21.744 11.6848 21.794 11.7498C21.848 11.8138 21.887 11.7098 21.848 11.6458C21.808 11.5818 21.756 11.5158 21.718 11.4378C21.678 11.3598 21.628 11.3338 21.524 11.3598C21.42 11.3858 21.394 11.3338 21.329 11.2958C21.264 11.2558 21.211 11.3478 21.264 11.2558C21.317 11.1658 21.342 11.1388 21.381 11.0608C21.419 10.9828 21.589 10.8408 21.419 10.8008C21.249 10.7608 21.197 10.7368 21.172 10.6588C21.147 10.5808 20.952 10.4388 20.902 10.4388C20.848 10.4388 20.668 10.4388 20.654 10.3738C20.64 10.3088 20.511 10.1658 20.446 10.1008C20.382 10.0358 20.134 9.75082 20.096 9.72382C20.056 9.69782 20.004 9.71082 19.886 9.86682C19.771 10.0238 19.666 10.0498 19.576 10.0108C19.484 9.97082 19.471 9.98482 19.382 9.88082C19.289 9.77682 19.472 9.76382 19.432 9.69882C19.392 9.63382 19.186 9.60882 19.056 9.59482C18.926 9.58082 18.836 9.43882 18.64 9.42482C18.446 9.41282 18.212 9.45182 18.147 9.45182C18.083 9.45182 18.083 9.54182 18.057 9.68582C18.03 9.82882 18.147 9.86782 18.03 9.89382C17.913 9.91982 17.86 9.93382 17.978 9.98382C18.095 10.0368 18.251 10.2438 18.251 10.2438C18.251 10.2438 18.251 10.3618 18.158 10.4268C18.068 10.4918 17.976 10.5568 17.925 10.4798C17.872 10.4018 17.73 10.4158 17.77 10.4938C17.807 10.5718 17.885 10.6108 17.885 10.6888C17.885 10.7648 18.002 10.9588 17.925 11.0248C17.845 11.0898 17.755 11.0388 17.691 11.0508C17.627 11.0628 17.561 10.9468 17.614 10.9208C17.664 10.8948 17.6 10.7008 17.6 10.7008C17.6 10.7008 17.444 10.9208 17.456 10.8038C17.47 10.6868 17.392 10.6738 17.392 10.5838C17.392 10.4918 17.312 10.4538 17.198 10.4788C17.08 10.5048 16.938 10.4388 16.716 10.3988C16.5435 10.3782 16.3763 10.3256 16.223 10.2438C16.041 10.1538 15.976 10.2178 15.885 10.2308C15.795 10.2438 15.833 10.0488 15.715 10.0238C15.6 9.99682 15.535 10.0488 15.509 9.87982C15.482 9.71282 15.547 9.67282 15.832 9.48982C16.118 9.30982 16.079 9.22982 16.3 9.20482C16.52 9.17882 16.626 9.23082 16.626 9.16482C16.626 9.09882 16.678 8.84082 16.678 8.97082C16.678 9.10082 16.94 9.11082 16.822 9.20082C16.706 9.29082 16.77 9.30482 16.862 9.30482C16.952 9.30482 17.122 9.21482 17.122 9.21482C17.122 9.21482 17.329 9.12282 17.382 9.20082C17.434 9.27882 17.434 9.35682 17.525 9.35682C17.616 9.35682 17.81 9.25282 17.641 9.16182C17.474 9.07182 17.371 9.08482 17.266 8.98182C17.161 8.87882 17.188 8.91582 17.071 8.94182C16.955 8.96782 16.955 8.90182 16.915 8.90182C16.875 8.90182 16.811 8.92882 16.785 8.87682C16.76 8.82482 16.799 8.81182 16.93 8.81182C17.058 8.81182 17.214 8.85182 17.214 8.85182L17.408 8.78582C17.448 8.77282 17.655 8.74582 17.616 8.63082C17.576 8.51282 17.446 8.51282 17.408 8.47382C17.37 8.43482 17.486 8.38382 17.551 8.35682C17.617 8.33082 17.799 8.35682 17.799 8.35682C17.799 8.35682 17.916 8.36982 17.916 8.31682C17.916 8.26382 17.888 8.20082 17.966 8.23982C18.044 8.27882 17.966 8.39482 18.084 8.36982C18.2 8.34282 18.227 8.36982 18.291 8.40782C18.356 8.44782 18.278 8.60282 18.214 8.62782C18.149 8.65382 18.044 8.70582 18.188 8.71782C18.332 8.73282 18.434 8.73282 18.434 8.73282C18.434 8.73282 18.526 8.64282 18.564 8.56282C18.604 8.48582 18.669 8.53782 18.72 8.56282C18.77 8.58882 18.966 8.62882 18.784 8.68082C18.601 8.73382 18.564 8.79882 18.524 8.86382C18.486 8.92882 18.471 8.96782 18.304 8.92882C18.134 8.88882 18.044 8.90282 18.004 8.96882C17.964 9.03182 17.991 9.24082 18.057 9.21482C18.12 9.18882 18.187 9.18882 18.264 9.16282C18.342 9.13682 18.654 9.18882 18.731 9.17582C18.811 9.16282 18.941 9.30582 18.981 9.27982C19.019 9.25282 19.097 9.32982 19.174 9.38282C19.252 9.43482 19.226 9.26582 19.368 9.36982C19.512 9.47382 19.433 9.47382 19.512 9.47382C19.589 9.47382 19.759 9.48682 19.759 9.48682C19.759 9.48682 19.773 9.35682 19.903 9.38282C20.033 9.40882 20.149 9.55282 20.136 9.44682C20.124 9.34382 20.149 9.26682 20.046 9.18682C19.942 9.10982 19.774 9.05682 19.746 9.01882C19.721 8.97882 19.696 8.92682 19.734 8.90082C19.774 8.87582 19.956 8.91382 20.059 8.98082C20.163 9.04482 20.254 9.11082 20.332 9.05782C20.409 9.00482 20.502 8.97782 20.54 8.93982C20.578 8.89982 20.67 8.78382 20.67 8.78382C20.67 8.78382 20.28 8.73382 20.23 8.66682C20.176 8.60082 19.994 8.50982 19.942 8.50982C19.89 8.50982 19.748 8.59982 19.696 8.46982C19.644 8.33982 19.644 8.18482 19.591 8.17182C19.541 8.15882 18.994 8.08182 18.917 8.04182C18.84 8.00182 18.527 7.91182 18.41 7.84682C18.293 7.78182 18.124 7.69082 18.02 7.69082C17.917 7.69082 17.488 7.74282 17.41 7.73082C17.332 7.71682 17.098 7.75582 17.007 7.76882C16.917 7.78182 17.124 7.95082 16.93 7.98882C16.735 8.02882 16.76 8.05482 16.8 7.85882C16.838 7.66482 16.67 7.61282 16.5 7.69082C16.332 7.76882 16.06 7.82082 16.124 7.91082C16.189 8.00282 16.112 8.06882 16.241 8.15882C16.371 8.24882 16.424 8.27582 16.591 8.26282C16.761 8.24982 16.931 8.28782 16.931 8.28782C16.931 8.28782 16.931 8.44582 16.866 8.47082C16.801 8.49682 16.696 8.49682 16.67 8.57482C16.644 8.65282 16.515 8.69182 16.515 8.65282C16.515 8.61382 16.581 8.48282 16.49 8.41882C16.4 8.35482 16.373 8.34182 16.27 8.40682C16.165 8.47182 16.153 8.49682 16.1 8.39382C16.048 8.28982 15.892 8.19882 15.892 8.19882C15.892 8.19882 15.788 8.06882 15.71 8.00482C15.633 7.93982 15.49 7.95282 15.476 8.01782C15.464 8.08082 15.503 8.14582 15.556 8.26382C15.606 8.38082 15.659 8.60082 15.568 8.61382C15.478 8.62782 15.464 8.64082 15.373 8.66682C15.283 8.69182 15.243 8.62682 15.243 8.52282C15.243 8.41882 15.203 8.32782 15.23 8.28882C15.256 8.24882 15.126 8.31582 14.996 8.28882C14.866 8.26382 14.763 8.34082 14.892 8.38082C15.022 8.42082 15.049 8.57482 14.932 8.61382C14.814 8.65382 14.372 8.61382 14.229 8.61382C14.086 8.61382 13.879 8.65382 13.839 8.57382C13.799 8.49682 13.957 8.44582 14.047 8.44582C14.139 8.44582 14.411 8.45582 14.515 8.31582C14.619 8.17182 14.385 8.14582 14.282 8.14582C14.179 8.14582 14.099 8.10582 13.982 7.99082C13.865 7.87382 14.062 7.79582 14.035 7.74382C14.009 7.69182 13.879 7.72982 13.763 7.72982C13.647 7.72982 13.463 7.63982 13.463 7.74382C13.463 7.84782 13.607 8.14582 13.516 8.08082C13.424 8.01682 13.436 7.92482 13.372 7.84682C13.307 7.76982 13.204 7.78282 13.072 7.79682C12.944 7.80882 12.722 7.84682 12.658 7.83482C12.594 7.82282 12.645 7.82182 12.502 7.75682C12.36 7.69182 12.294 7.70482 12.19 7.63982C12.087 7.57282 12.178 7.54782 11.996 7.53482C11.816 7.52182 11.828 7.62482 11.646 7.59982C11.464 7.57382 11.412 7.61282 11.23 7.59982C11.048 7.58682 10.958 7.57382 10.93 7.66482C10.906 7.75482 10.853 7.91182 10.775 7.91182C10.697 7.91182 10.605 8.00182 10.852 8.01582C11.099 8.02782 10.957 8.14382 11.177 8.13182C11.397 8.11882 11.593 8.11882 11.645 8.01482C11.697 7.91082 11.735 7.90982 11.762 7.94882C11.787 7.98882 11.982 8.22082 11.982 8.22082C11.982 8.22082 12.112 8.32482 12.165 8.35082C12.215 8.37682 12.113 8.49382 12.009 8.42882C11.905 8.36382 11.709 8.37882 11.632 8.31282C11.554 8.24782 11.202 8.24782 11.112 8.26082C11.022 8.27382 10.865 8.22082 10.812 8.22082C10.762 8.22082 10.592 8.35082 10.592 8.35082C10.592 8.35082 10.527 8.24682 10.489 8.19482C10.449 8.14282 10.385 8.24682 10.333 8.25982C10.281 8.27282 10.125 8.15582 9.969 8.20782C9.813 8.25982 9.865 8.31182 9.644 8.29782C9.423 8.28382 9.371 8.24782 9.294 8.25982L9.214 8.27282C9.214 8.27282 9.227 8.32482 9.137 8.37682C9.047 8.42882 8.98 8.49382 8.915 8.41682C8.852 8.33682 8.813 8.33682 8.775 8.32482C8.735 8.31182 8.655 8.24682 8.488 8.28482C8.318 8.32482 8.058 8.23482 8.008 8.23482C7.968 8.23482 7.695 8.21882 7.518 8.20082C9.63 5.91382 12.645 4.46582 16 4.46582C18.128 4.46582 20.117 5.05582 21.83 6.06382C21.7701 6.09336 21.705 6.11062 21.6383 6.11457C21.5717 6.11852 21.5049 6.10908 21.442 6.08682C21.364 6.04382 21.284 6.00882 20.967 6.02682C20.65 6.04382 20.302 6.14682 20.372 6.25182C20.444 6.35582 20.23 6.41682 20.175 6.36482C20.12 6.31282 19.865 6.42482 19.882 6.52982C19.898 6.63382 19.842 6.75482 19.707 6.72982C19.573 6.70182 19.477 6.78982 19.47 6.87482C19.463 6.96182 19.16 7.02182 19.138 7.02182C19.114 7.02182 18.726 7.01382 18.868 7.11682C18.965 7.18682 19.018 7.14382 19.138 7.16882C19.258 7.19382 19.352 7.38482 19.415 7.41082C19.477 7.43682 19.565 7.41082 19.605 7.35882C19.645 7.30682 19.699 7.12482 19.699 7.12482C19.699 7.12482 19.699 7.29782 19.795 7.33282C19.89 7.36782 20.125 7.30682 20.19 7.31582C20.255 7.32482 20.628 7.37582 20.73 7.42782C20.833 7.47782 21.085 7.51382 21.157 7.62582C21.227 7.73882 21.237 8.12882 21.277 8.17182C21.317 8.21482 21.45 8.03182 21.481 7.98982C21.513 7.94582 21.681 7.97182 21.736 8.03182C21.792 8.09182 21.918 8.23982 21.911 8.30182C21.901 8.36182 21.878 8.45682 21.831 8.42182C21.783 8.38882 21.704 8.39782 21.735 8.32782C21.767 8.25782 21.783 8.11082 21.72 8.11082H21.6C21.6 8.11082 21.48 8.07582 21.4 8.20582C21.32 8.33582 21.386 8.46582 21.44 8.46582C21.494 8.46582 21.625 8.46582 21.625 8.49982C21.625 8.53482 21.489 8.63982 21.497 8.69982C21.507 8.75982 21.607 8.96782 21.641 9.01182C21.673 9.05482 21.839 9.09782 21.886 9.10782C21.936 9.11582 21.776 9.12482 21.816 9.18482C21.856 9.24482 21.918 9.39282 22.006 9.42782C22.092 9.46282 22.338 9.61782 22.368 9.68782C22.4 9.75782 22.59 9.63582 22.63 9.62782C22.67 9.61782 22.66 9.80782 22.772 9.81782C22.882 9.82582 22.922 9.79982 23.017 9.72182C23.112 9.64382 23.089 9.53982 23.097 9.46182C23.105 9.38382 23.097 9.32382 23.2 9.34882C23.304 9.37582 23.358 9.33182 23.35 9.24582C23.342 9.15882 23.255 9.05582 23.42 9.02882C23.587 9.00282 23.674 8.89082 23.777 8.89082C23.88 8.89082 24.167 8.93382 24.197 8.89082C24.227 8.84782 24.363 8.64782 24.45 8.64082C24.517 8.63282 24.674 8.61882 24.835 8.59782C26.4646 10.5404 27.4046 12.9683 27.508 15.5018C27.39 15.6618 27.496 15.8068 27.528 15.9098L27.534 15.9978C27.534 16.1338 27.518 16.2678 27.514 16.4018L27.51 16.4078V16.4098ZM17.794 12.0838C17.73 12.0968 17.624 12.0318 17.624 11.9408C17.624 11.8498 17.534 12.1108 17.584 12.1888C17.638 12.2668 17.481 12.3588 17.43 12.3588C17.379 12.3588 17.34 12.2418 17.352 12.1248C17.366 12.0078 17.275 11.9048 17.132 11.9168C16.988 11.9308 16.922 12.0468 16.872 12.0868C16.819 12.1248 16.819 12.3448 16.832 12.3968C16.845 12.4488 16.845 12.6328 16.716 12.6188C16.598 12.6058 16.624 12.3858 16.636 12.3068C16.651 12.2288 16.598 12.0338 16.651 11.9308C16.705 11.8268 16.859 11.7878 16.964 11.7748C17.069 11.7618 17.288 11.8398 17.327 11.8268C17.367 11.8128 17.549 11.8128 17.639 11.8268C17.729 11.8368 17.859 12.0718 17.795 12.0848L17.794 12.0838ZM18.027 12.1238C18.067 12.1488 18.337 12.0838 18.391 12.1488C18.443 12.2128 18.338 12.2258 18.209 12.2788C18.079 12.3288 18.039 12.3168 17.989 12.3818C17.939 12.4468 17.767 12.4718 17.689 12.5498C17.611 12.6298 17.472 12.6758 17.443 12.6158C17.403 12.5378 17.456 12.5758 17.468 12.5378C17.481 12.4978 17.713 12.4078 17.713 12.4078C17.713 12.4078 17.989 12.0978 18.028 12.1228L18.027 12.1238ZM16.987 11.6678C16.95 11.6808 16.807 11.6418 16.687 11.6418C16.572 11.6418 16.597 11.5638 16.545 11.5778C16.495 11.5908 16.377 11.6178 16.298 11.6558C16.22 11.6958 16.09 11.6858 16.09 11.6158C16.09 11.5118 16.142 11.5378 16.31 11.4728C16.48 11.4078 16.663 11.2258 16.74 11.3028C16.818 11.3828 16.96 11.4728 17.052 11.4858C17.144 11.4998 17.026 11.6558 16.988 11.6678H16.987ZM15.659 7.63782C15.579 7.66282 15.311 7.77582 15.337 7.83582C15.347 7.85882 15.415 7.90582 15.527 7.88782C15.64 7.86982 15.803 7.85282 15.882 7.84482C15.96 7.83482 15.977 7.70482 15.892 7.69782C15.804 7.68782 15.735 7.61082 15.658 7.63782H15.659ZM14.697 7.74082C14.637 7.76782 14.454 7.69882 14.359 7.76082C14.299 7.79782 14.333 7.92382 14.429 7.93082C14.524 7.94082 14.689 7.87082 14.705 7.92382C14.723 7.97582 14.783 8.20982 14.939 8.13182C15.095 8.05382 15.086 7.98582 15.129 7.97682C15.172 7.96782 15.121 7.77682 15.051 7.73382C14.981 7.69082 14.757 7.71682 14.697 7.74382V7.74082ZM14.384 7.00582C14.401 7.04982 14.376 7.08382 14.497 7.10082C14.617 7.11882 14.67 7.13582 14.74 7.13582C14.81 7.13582 14.783 7.02282 14.723 6.94582C14.663 6.86782 14.68 6.87582 14.523 6.83282C14.3878 6.79705 14.2473 6.78521 14.108 6.79782C14.004 6.80782 13.891 6.78082 13.865 6.90182C13.852 6.96482 13.935 7.01482 14.039 7.01482C14.143 7.01482 14.367 6.96382 14.384 7.00582ZM14.61 7.48182C14.654 7.57782 14.654 7.53382 14.776 7.54382C14.896 7.55382 14.991 7.42382 15 7.37982C15.009 7.33582 14.94 7.24982 14.775 7.26682C14.61 7.28382 14.108 7.24082 14.039 7.30082C13.972 7.35782 14.039 7.53282 14.012 7.55082C13.986 7.56782 14.022 7.64582 14.089 7.62882C14.159 7.61182 14.193 7.44682 14.246 7.44682C14.298 7.44682 14.566 7.38682 14.61 7.48182ZM12.982 7.12782C13.034 7.17082 13.165 7.13582 13.155 7.09282C13.147 7.05082 13.208 6.87682 13.105 6.86882C13 6.86082 12.855 6.96482 12.697 7.01682C12.597 7.04982 12.619 7.14682 12.687 7.14682C12.755 7.14682 12.931 7.08682 12.982 7.12882V7.12782ZM13.72 7.28382C13.633 7.32682 13.606 7.35382 13.53 7.33582C13.45 7.31882 13.45 7.17982 13.312 7.20582C13.174 7.23182 13.148 7.30982 13.105 7.34582C13.062 7.38182 12.965 7.40582 12.932 7.38782C12.898 7.37082 12.698 7.25782 12.698 7.25782C12.698 7.25782 12.282 7.24082 12.265 7.18782C12.248 7.13782 12.179 7.05082 11.988 7.06782C11.797 7.08482 11.468 7.19782 11.416 7.19782C11.364 7.19782 11.478 7.30182 11.406 7.30182C11.338 7.30182 11.252 7.29382 11.226 7.37182C11.208 7.42382 11.304 7.42182 11.416 7.42182C11.526 7.42182 11.71 7.42182 11.762 7.39682C11.814 7.37182 12.074 7.30982 12.065 7.38682C12.055 7.46682 12.169 7.58682 12.229 7.56982C12.289 7.55282 12.411 7.43982 12.471 7.48382C12.531 7.52682 12.541 7.62982 12.601 7.65682C12.661 7.68182 12.827 7.68182 12.905 7.65682C12.982 7.62982 13.199 7.62982 13.295 7.64682C13.389 7.66682 13.667 7.71682 13.693 7.66682C13.719 7.61282 13.797 7.60482 13.805 7.55282C13.813 7.50082 13.855 7.33782 13.855 7.33782C13.855 7.33782 13.805 7.24182 13.719 7.28482L13.72 7.28382ZM18.105 16.2408C17.985 16.2608 18.015 16.4908 18.157 16.4508C18.3 16.4078 18.223 16.2178 18.105 16.2408ZM19.235 15.9308C19.131 15.9038 19.015 15.9308 18.935 15.9428C18.858 15.9558 18.637 16.1508 18.637 16.1508C18.637 16.1508 18.78 16.1768 18.87 16.1768C18.962 16.1768 19.014 16.2268 19.09 16.2668C19.17 16.3068 19.312 16.2148 19.363 16.2148C19.416 16.2148 19.481 16.3708 19.493 16.2018C19.508 16.0338 19.339 15.9568 19.235 15.9318V15.9308ZM15.615 7.50782C15.573 7.40382 15.357 7.36782 15.312 7.47282C15.274 7.56282 15.659 7.61282 15.616 7.50782H15.615ZM18.093 15.2928C18.236 15.2668 18.157 15.1488 18.04 15.1628C17.922 15.1758 17.95 15.3188 18.093 15.2928ZM19.82 16.0958C19.7 16.1178 19.728 16.3488 19.87 16.3058C20.015 16.2658 19.937 16.0758 19.82 16.0958ZM18.247 15.7088C18.157 15.7218 17.962 15.6188 17.857 15.5268C17.754 15.4368 17.559 15.4368 17.481 15.4368C17.405 15.4368 17.091 15.5268 17.091 15.5268C17.079 15.6568 17.209 15.6168 17.365 15.6168C17.521 15.6168 17.795 15.5918 17.845 15.6568C17.897 15.7208 18.13 15.8248 18.195 15.8768C18.26 15.9298 18.468 15.9428 18.481 15.8908C18.494 15.8388 18.338 15.6958 18.247 15.7088ZM16.697 7.41282C16.567 7.40282 16.403 7.40282 16.299 7.41282C16.194 7.42082 16.116 7.34282 16.039 7.29982C15.961 7.25582 15.787 7.11682 15.684 7.09982C15.58 7.08282 15.598 7.08282 15.381 7.02982C15.271 7.00382 15.087 6.96982 15.087 6.94482C15.087 6.91982 15.035 7.06482 15.13 7.10982C15.226 7.15282 15.382 7.22982 15.494 7.27382C15.608 7.31682 15.824 7.32582 15.894 7.41382C15.962 7.49882 16.196 7.56882 16.196 7.56882L16.473 7.59382C16.473 7.59382 16.663 7.55082 16.863 7.56782C17.063 7.58482 17.356 7.60982 17.523 7.60182C17.685 7.59382 17.711 7.54182 17.73 7.50682C17.746 7.47082 17.426 7.40182 17.347 7.41082C17.271 7.41682 16.827 7.41682 16.697 7.40882V7.41282ZM17.182 9.40482C17.148 9.44482 17.339 9.49982 17.372 9.44782C17.407 9.39782 17.272 9.30982 17.182 9.40482ZM17.764 9.58482C17.85 9.55082 17.807 9.44682 17.684 9.48182C17.547 9.52182 17.676 9.62182 17.764 9.58682V9.58482Z" fill="black"/>
</svg>
