<svg width="24" height="24" viewBox="0 0 24 24" fill="none" xmlns="http://www.w3.org/2000/svg">
<g clip-path="url(#clip0_702_280)">
<path fill-rule="evenodd" clip-rule="evenodd" d="M2 5.75C2 5.55109 2.07902 5.36032 2.21967 5.21967C2.36032 5.07902 2.55109 5 2.75 5H20.75C20.9489 5 21.1397 5.07902 21.2803 5.21967C21.421 5.36032 21.5 5.55109 21.5 5.75C21.5 5.94891 21.421 6.13968 21.2803 6.28033C21.1397 6.42098 20.9489 6.5 20.75 6.5H2.75C2.55109 6.5 2.36032 6.42098 2.21967 6.28033C2.07902 6.13968 2 5.94891 2 5.75ZM2 9.75C2 9.55109 2.07902 9.36032 2.21967 9.21967C2.36032 9.07902 2.55109 9 2.75 9H20.75C20.9489 9 21.1397 9.07902 21.2803 9.21967C21.421 9.36032 21.5 9.55109 21.5 9.75C21.5 9.94891 21.421 10.1397 21.2803 10.2803C21.1397 10.421 20.9489 10.5 20.75 10.5H2.75C2.55109 10.5 2.36032 10.421 2.21967 10.2803C2.07902 10.1397 2 9.94891 2 9.75ZM20.211 12.659C20.3676 12.7813 20.4693 12.9608 20.4937 13.1581C20.5181 13.3554 20.4631 13.5542 20.341 13.711L16.441 18.711C16.3723 18.799 16.2847 18.8705 16.1848 18.9204C16.0849 18.9702 15.9751 18.9971 15.8635 18.9991C15.7519 19.0012 15.6412 18.9782 15.5395 18.932C15.4379 18.8858 15.3479 18.8175 15.276 18.732L13.176 16.232C13.1086 16.1572 13.0569 16.0696 13.024 15.9744C12.9912 15.8792 12.9778 15.7783 12.9848 15.6778C12.9918 15.5774 13.0189 15.4793 13.0646 15.3896C13.1103 15.2998 13.1736 15.2201 13.2507 15.1554C13.3278 15.0906 13.4172 15.042 13.5135 15.0126C13.6098 14.9831 13.7111 14.9733 13.8113 14.9838C13.9114 14.9943 14.0084 15.0249 14.0965 15.0737C14.1846 15.1226 14.262 15.1886 14.324 15.268L15.828 17.058L19.158 12.788C19.2186 12.7103 19.2939 12.6453 19.3796 12.5967C19.4653 12.5481 19.5598 12.5169 19.6576 12.5048C19.7554 12.4927 19.8546 12.5001 19.9495 12.5263C20.0445 12.5526 20.1333 12.5974 20.211 12.658M2 13.75C2 13.5511 2.07902 13.3603 2.21967 13.2197C2.36032 13.079 2.55109 13 2.75 13H9.75C9.94891 13 10.1397 13.079 10.2803 13.2197C10.421 13.3603 10.5 13.5511 10.5 13.75C10.5 13.9489 10.421 14.1397 10.2803 14.2803C10.1397 14.421 9.94891 14.5 9.75 14.5H2.75C2.55109 14.5 2.36032 14.421 2.21967 14.2803C2.07902 14.1397 2 13.9489 2 13.75ZM2 17.75C2 17.5511 2.07902 17.3603 2.21967 17.2197C2.36032 17.079 2.55109 17 2.75 17H9.75C9.94891 17 10.1397 17.079 10.2803 17.2197C10.421 17.3603 10.5 17.5511 10.5 17.75C10.5 17.9489 10.421 18.1397 10.2803 18.2803C10.1397 18.421 9.94891 18.5 9.75 18.5H2.75C2.55109 18.5 2.36032 18.421 2.21967 18.2803C2.07902 18.1397 2 17.9489 2 17.75Z" fill="black"/>
</g>
<defs>
<clipPath id="clip0_702_280">
<rect width="24" height="24" fill="white"/>
</clipPath>
</defs>
</svg>
