<svg width="16" height="16" viewBox="0 0 16 16" fill="none" xmlns="http://www.w3.org/2000/svg">
<path d="M6 11.25H12C12.5304 11.25 13.0391 11.0393 13.4142 10.6642C13.7893 10.2891 14 9.78043 14 9.25C14 8.71957 13.7893 8.21086 13.4142 7.83579C13.0391 7.46071 12.5304 7.25 12 7.25H5C4.46957 7.25 3.96086 7.03929 3.58579 6.66421C3.21071 6.28914 3 5.78043 3 5.25C3 4.71957 3.21071 4.21086 3.58579 3.83579C3.96086 3.46071 4.46957 3.25 5 3.25H8.242M4.5 10C4.89782 10 5.27936 10.158 5.56066 10.4393C5.84196 10.7206 6 11.1022 6 11.5C6 11.8978 5.84196 12.2794 5.56066 12.5607C5.27936 12.842 4.89782 13 4.5 13C4.10218 13 3.72064 12.842 3.43934 12.5607C3.15804 12.2794 3 11.8978 3 11.5C3 11.1022 3.15804 10.7206 3.43934 10.4393C3.72064 10.158 4.10218 10 4.5 10ZM10 2C10.197 2 10.392 2.0388 10.574 2.11418C10.756 2.18956 10.9214 2.30005 11.0607 2.43934C11.1999 2.57863 11.3104 2.74399 11.3858 2.92597C11.4612 3.10796 11.5 3.30302 11.5 3.5C11.5 3.69698 11.4612 3.89204 11.3858 4.07403C11.3104 4.25601 11.1999 4.42137 11.0607 4.56066C10.9214 4.69995 10.756 4.81044 10.574 4.88582C10.392 4.9612 10.197 5 10 5C9.60218 5 9.22064 4.84196 8.93934 4.56066C8.65804 4.27936 8.5 3.89782 8.5 3.5C8.5 3.10218 8.65804 2.72064 8.93934 2.43934C9.22064 2.15804 9.60218 2 10 2Z" stroke="#222222"/>
</svg>
