<svg width="16" height="16" viewBox="0 0 16 16" fill="none" xmlns="http://www.w3.org/2000/svg">
<path d="M8.00007 13.3332H14.0001M10.9174 2.41449C11.1828 2.1491 11.5427 2 11.9181 2C12.2934 2 12.6533 2.1491 12.9187 2.41449C13.1841 2.67988 13.3332 3.03983 13.3332 3.41516C13.3332 3.79048 13.1841 4.15043 12.9187 4.41582L4.91207 12.4232C4.75346 12.5818 4.55741 12.6978 4.34207 12.7605L2.4274 13.3192C2.37003 13.3359 2.30923 13.3369 2.25134 13.3221C2.19345 13.3072 2.14062 13.2771 2.09836 13.2349C2.05611 13.1926 2.02599 13.1398 2.01116 13.0819C1.99633 13.024 1.99733 12.9632 2.01407 12.9058L2.57273 10.9912C2.63555 10.776 2.75156 10.5802 2.91007 10.4218L10.9174 2.41449Z" stroke="black" stroke-linecap="round" stroke-linejoin="round"/>
</svg>
