<svg width="106" height="103" viewBox="0 0 106 103" fill="none" xmlns="http://www.w3.org/2000/svg">
<path fill-rule="evenodd" clip-rule="evenodd" d="M58.6967 35.1574C58.8898 35.0172 59.127 34.9454 59.4088 34.9424C59.7508 34.9656 59.9883 35.109 60.1209 35.3724C58.759 36.8833 57.4026 38.3885 56.0518 39.8881C56.3434 39.4456 56.4791 38.9437 56.4587 38.3829C56.6622 38.3829 56.8656 38.3829 57.0691 38.3829C57.1511 37.758 57.49 37.3639 58.0864 37.2002C57.5916 36.9665 57.6595 36.859 58.2898 36.8777C58.2052 36.2627 58.4086 35.7969 58.9002 35.48C58.8859 35.3155 58.8182 35.2079 58.6967 35.1574Z" fill="#19A2BC"/>
<path opacity="0.455" fill-rule="evenodd" clip-rule="evenodd" d="M60.1209 35.3724C59.9883 35.109 59.7508 34.9656 59.4088 34.9424C59.127 34.9454 58.8898 35.0172 58.6967 35.1574C57.8152 35.1574 56.9334 35.1574 56.0518 35.1574C54.8293 35.1217 53.6085 35.1576 52.3896 35.2649C52.1434 35.4883 51.94 35.7393 51.7793 36.0175C50.4776 37.1778 49.3246 38.468 48.3205 39.8881C47.9814 40.0315 47.6424 40.1747 47.3033 40.3182C48.9639 38.3839 50.727 36.5562 52.5931 34.8349C55.1692 34.7273 57.7464 34.6914 60.3244 34.7273C60.3726 35.0049 60.3048 35.22 60.1209 35.3724Z" fill="#035886"/>
<path fill-rule="evenodd" clip-rule="evenodd" d="M56.0518 35.1574C54.8018 35.8623 53.649 36.7224 52.5931 37.7378C52.0092 37.9384 51.5343 38.2968 51.1689 38.8129C51.1463 38.6802 51.0786 38.5727 50.9655 38.4904C51.3364 38.1339 51.6755 37.7397 51.9827 37.3077C52.363 37.066 52.7699 36.8869 53.2035 36.7701C52.9323 36.5551 52.9323 36.3401 53.2035 36.125C52.8134 36.1308 52.4743 36.3102 52.1862 36.6626C51.998 36.4783 51.8623 36.2633 51.7793 36.0175C51.94 35.7393 52.1435 35.4883 52.3896 35.2649C53.6085 35.1576 54.8293 35.1217 56.0518 35.1574Z" fill="#0093DF"/>
<path fill-rule="evenodd" clip-rule="evenodd" d="M56.0518 35.1577C56.9334 35.1577 57.8152 35.1577 58.6967 35.1577C58.8182 35.2082 58.8859 35.3158 58.9002 35.4803C58.4086 35.7972 58.2052 36.263 58.2898 36.878C57.6595 36.8593 57.5916 36.9668 58.0864 37.2005C57.49 37.3642 57.1511 37.7583 57.0691 38.3832C56.8656 38.3832 56.6622 38.3832 56.4587 38.3832C56.4791 38.944 56.3434 39.4459 56.0518 39.8884C55.123 39.8387 54.5467 40.2688 54.3224 41.1786C54.1859 41.3403 54.0164 41.4121 53.8138 41.3936C54.0352 40.9457 54.2386 40.48 54.4242 39.9959C54.2968 39.8346 54.1951 39.6553 54.119 39.4583C53.5764 39.1717 53.034 39.1717 52.4914 39.4583C52.3823 39.0139 52.484 38.6195 52.7965 38.2757C52.6435 38.1314 52.5756 37.9523 52.5931 37.7381C53.649 36.7227 54.8018 35.8626 56.0518 35.1577Z" fill="#00B9F1"/>
<path opacity="0.963" fill-rule="evenodd" clip-rule="evenodd" d="M95.929 38.5981C96.5935 38.7302 96.8647 39.1602 96.7428 39.8883C96.6716 40.6986 96.5361 41.4869 96.3359 42.2537C95.9967 42.2537 95.6578 42.2537 95.3186 42.2537C95.3186 41.8952 95.3186 41.537 95.3186 41.1785C96.0081 40.1735 95.8047 39.4209 94.7083 38.9207C95.1021 38.7459 95.5091 38.6384 95.929 38.5981Z" fill="#C2BCBE"/>
<path opacity="0.078" fill-rule="evenodd" clip-rule="evenodd" d="M31.8407 39.4582C34.3825 39.2088 36.9596 39.1729 39.572 39.3507C39.9162 39.6318 40.1874 39.9543 40.3858 40.3184C39.997 40.1947 39.6578 39.9797 39.3685 39.6733C39.3008 39.6733 39.2328 39.6733 39.1651 39.6733C36.7598 39.4593 34.3184 39.3877 31.8407 39.4582Z" fill="#07486C"/>
<path fill-rule="evenodd" clip-rule="evenodd" d="M87.3839 38.813C87.0417 39.36 86.8382 39.9692 86.7735 40.6407C86.8388 41.2439 87.0423 41.7815 87.3839 42.2535C86.9013 41.7114 86.4266 41.7473 85.9597 42.361C84.8901 42.6676 83.9746 42.4167 83.213 41.6084C83.0727 42.4019 82.6318 42.6528 81.8906 42.361C81.317 41.7761 81.3848 41.2744 82.094 40.8558C82.3787 40.7278 82.6499 40.7637 82.9079 40.9633C83.468 38.4453 84.8242 37.8002 86.977 39.028C87.1159 38.95 87.2516 38.8783 87.3839 38.813ZM85.1459 39.6731C85.5646 39.9812 86.0394 40.1247 86.57 40.1032C86.6504 40.7532 86.447 40.9682 85.9597 40.7483C85.0331 41.4673 84.5923 41.2523 84.6372 40.1032C84.8397 39.9815 85.0091 39.838 85.1459 39.6731Z" fill="#AEA8A9"/>
<path opacity="0.502" fill-rule="evenodd" clip-rule="evenodd" d="M89.8253 38.8134C89.6219 38.8134 89.4184 38.8134 89.215 38.8134C89.4288 39.492 89.4288 40.1371 89.215 40.7487C89.2325 40.9628 89.1645 41.142 89.0115 41.2862C87.7568 41.6804 87.3161 41.2146 87.6891 39.8885C87.981 39.5206 88.3542 39.2697 88.8081 39.1359C88.3651 38.8775 87.8903 38.7699 87.3839 38.8134C88.2038 38.2588 89.0176 38.2588 89.8253 38.8134ZM89.215 40.7487C88.8809 41.0886 88.474 41.2318 87.9942 41.1787C87.8213 40.1081 88.1942 39.678 89.1132 39.8885C89.2129 40.1666 89.2469 40.4534 89.215 40.7487Z" fill="#9F9899"/>
<path opacity="0.169" fill-rule="evenodd" clip-rule="evenodd" d="M95.929 38.5983C95.5091 38.6385 95.1022 38.7461 94.7083 38.9209C95.8047 39.421 96.0081 40.1737 95.3186 41.1787C95.3186 40.7486 95.3186 40.3186 95.3186 39.8885C95.0179 39.8322 94.7467 39.9038 94.5048 40.1036C94.3974 40.4983 94.2619 40.8568 94.0979 41.1787C94.1136 40.3799 94.0458 39.5916 93.8945 38.8134C92.9769 38.7263 92.0275 38.7263 91.0461 38.8134C90.9252 39.9629 90.7895 41.1099 90.6392 42.2539C90.9104 42.2539 91.1818 42.2539 91.453 42.2539C91.1588 42.4932 90.8196 42.5291 90.4357 42.3614C90.2654 42.144 90.1977 41.893 90.2323 41.6088C90.2742 40.6631 90.2064 39.7311 90.0288 38.8134C90.2913 38.9334 90.4607 39.1484 90.5374 39.4585C90.6559 38.8377 90.995 38.4792 91.5547 38.3833C92.2377 38.4293 92.9498 38.465 93.691 38.4908C93.8774 38.5712 94.047 38.6788 94.1996 38.8134C94.764 38.3721 95.3404 38.3003 95.929 38.5983Z" fill="#9A9294"/>
<path fill-rule="evenodd" clip-rule="evenodd" d="M31.8407 39.4584C34.3184 39.3878 36.7598 39.4594 39.1651 39.6734C38.8259 39.6734 38.4869 39.6734 38.1478 39.6734C36.3844 39.6734 34.6213 39.6734 32.858 39.6734C32.858 39.8884 32.858 40.1035 32.858 40.3185C33.1924 40.2725 33.4976 40.3443 33.7735 40.5335C34.0447 41.2502 34.3161 41.9671 34.5873 42.6838C34.8343 43.0169 35.1395 43.2677 35.5029 43.4365C35.3898 43.5188 35.322 43.6263 35.2994 43.759C34.1123 42.5385 32.9253 41.3199 31.739 40.1035C31.5884 39.8349 31.6224 39.6199 31.8407 39.4584Z" fill="#0D8FC4"/>
<path opacity="0.984" fill-rule="evenodd" clip-rule="evenodd" d="M94.0979 41.1787C94.1557 41.5905 94.0879 41.9487 93.8944 42.2539C93.5553 42.2539 93.2163 42.2539 92.8772 42.2539C92.8772 41.9672 92.8772 41.6804 92.8772 41.3937C93.0759 40.7944 93.1437 40.1494 93.0806 39.4585C92.6804 39.5098 92.3073 39.4382 91.9616 39.2434C91.7921 39.4225 91.6225 39.6019 91.453 39.781C91.6273 40.5895 91.6273 41.414 91.453 42.2539C91.1818 42.2539 90.9104 42.2539 90.6392 42.2539C90.7895 41.1099 90.9252 39.9629 91.0461 38.8134C92.0275 38.7263 92.9769 38.7263 93.8944 38.8134C94.0458 39.5916 94.1136 40.3799 94.0979 41.1787Z" fill="#D2CBCC"/>
<path opacity="0.965" fill-rule="evenodd" clip-rule="evenodd" d="M92.8772 41.3935C92.9535 40.7705 92.8517 40.1973 92.572 39.6732C92.0873 40.494 91.7142 41.3541 91.453 42.2536C91.6273 41.4137 91.6273 40.5893 91.453 39.7807C91.6225 39.6016 91.7921 39.4223 91.9616 39.2432C92.3073 39.438 92.6804 39.5096 93.0806 39.4582C93.1437 40.1491 93.0759 40.7942 92.8772 41.3935Z" fill="#8B8888"/>
<path fill-rule="evenodd" clip-rule="evenodd" d="M52.5931 37.7378C52.5756 37.952 52.6436 38.1311 52.7966 38.2754C52.484 38.6192 52.3823 39.0136 52.4914 39.458C53.034 39.1714 53.5764 39.1714 54.119 39.458C54.1951 39.655 54.2968 39.8343 54.4242 39.9956C54.2386 40.4797 54.0352 40.9454 53.8138 41.3933C53.3872 41.6899 53.3194 42.0481 53.6104 42.4685C53.6104 42.6119 53.5426 42.6835 53.4069 42.6835C52.7292 42.5799 52.1868 42.7949 51.7793 43.3286C51.4192 43.037 51.148 42.6429 50.9655 42.1459C51.1589 41.9915 51.1927 41.8124 51.0672 41.6084C50.7913 41.4191 50.4861 41.3473 50.1516 41.3933C50.4106 40.5009 50.7498 39.6408 51.1689 38.8129C51.5343 38.2969 52.0092 37.9384 52.5931 37.7378Z" fill="#00A2E6"/>
<path fill-rule="evenodd" clip-rule="evenodd" d="M87.3839 38.8131C87.8903 38.7696 88.3651 38.8772 88.808 39.1356C88.3541 39.2694 87.981 39.5203 87.689 39.8882C87.3161 41.2143 87.7568 41.6801 89.0115 41.2859C89.1645 41.1417 89.2325 40.9625 89.215 40.7484C89.4288 40.1368 89.4288 39.4917 89.215 38.8131C89.4184 38.8131 89.6219 38.8131 89.8253 38.8131C89.8931 38.8131 89.961 38.8131 90.0288 38.8131C90.2064 39.7308 90.2741 40.6628 90.2322 41.6085C89.4192 42.469 88.4699 42.6841 87.3839 42.2536C87.0423 41.7816 86.8388 41.244 86.7735 40.6409C86.8382 39.9693 87.0417 39.3601 87.3839 38.8131ZM89.215 40.7484C89.2469 40.4531 89.2129 40.1663 89.1132 39.8882C88.1942 39.6777 87.8213 40.1078 87.9942 41.1784C88.474 41.2315 88.8809 41.0883 89.215 40.7484Z" fill="#D1CACC"/>
<path fill-rule="evenodd" clip-rule="evenodd" d="M39.3685 39.6733C39.6578 39.9798 39.997 40.1948 40.3858 40.3184C41.5441 41.3282 42.6293 42.4034 43.6411 43.5439C43.6527 43.7824 43.7204 43.9974 43.8445 44.189C43.6305 44.221 43.427 44.1853 43.2342 44.0815C42.4657 42.982 41.5162 42.086 40.3858 41.3936C40.4161 41.1674 40.3823 40.9523 40.2841 40.7485C39.7927 40.5526 39.4876 40.1941 39.3685 39.6733Z" fill="#0C69A4"/>
<path opacity="0.961" fill-rule="evenodd" clip-rule="evenodd" d="M56.0518 39.8881C55.1703 40.6767 54.3565 41.5368 53.6104 42.4685C53.3194 42.0481 53.3872 41.6899 53.8138 41.3934C54.0165 41.4118 54.186 41.34 54.3225 41.1783C54.5467 40.2685 55.1231 39.8385 56.0518 39.8881Z" fill="#1781A2"/>
<path fill-rule="evenodd" clip-rule="evenodd" d="M48.3205 39.8882C48.2284 40.0942 48.0929 40.2735 47.9136 40.4258C48.251 40.5817 48.3527 40.8326 48.2188 41.1784C47.3328 42.83 46.4172 44.4785 45.4722 46.1241C45.2695 46.1426 45.1001 46.0708 44.9635 45.9091C44.7389 45.2164 44.366 44.643 43.8445 44.1888C43.7204 43.9972 43.6527 43.7822 43.6411 43.5437C43.7666 43.5676 43.8683 43.6392 43.9463 43.7587C45.0386 42.5683 46.1576 41.4214 47.3033 40.3182C47.6424 40.1748 47.9814 40.0316 48.3205 39.8882Z" fill="#0049A1"/>
<path fill-rule="evenodd" clip-rule="evenodd" d="M51.1689 38.813C50.7498 39.6409 50.4106 40.501 50.1516 41.3934C50.4861 41.3473 50.7913 41.4192 51.0672 41.6084C51.1927 41.8125 51.1589 41.9916 50.9655 42.146C51.148 42.6429 51.4192 43.0371 51.7793 43.3286C51.2969 43.6959 50.9579 44.1976 50.762 44.8339C50.4762 45.1551 50.1372 45.3702 49.7447 45.479C49.2481 45.15 49.0107 44.6483 49.0326 43.9737C48.8969 43.6871 48.7614 43.6871 48.6257 43.9737C48.4178 43.7901 48.2483 43.5751 48.1171 43.3286C48.2601 42.718 48.4636 42.1445 48.7275 41.6084C49.4925 40.6427 50.3063 39.711 51.1689 38.813Z" fill="#0091DD"/>
<path opacity="0.09" fill-rule="evenodd" clip-rule="evenodd" d="M92.8771 41.3936C92.8771 41.6802 92.8771 41.967 92.8771 42.2537C93.2163 42.2537 93.5553 42.2537 93.8944 42.2537C93.5353 42.4603 93.1284 42.5321 92.6737 42.4687C92.6159 42.0569 92.6837 41.6987 92.8771 41.3936Z" fill="#675653"/>
<path opacity="0.11" fill-rule="evenodd" clip-rule="evenodd" d="M95.3186 41.1787C95.3186 41.5372 95.3186 41.8954 95.3186 42.2539C95.6578 42.2539 95.9967 42.2539 96.3359 42.2539C95.9768 42.4605 95.5699 42.5323 95.1152 42.4689C95.0552 41.9883 95.1231 41.5582 95.3186 41.1787Z" fill="#695559"/>
<path opacity="0.282" fill-rule="evenodd" clip-rule="evenodd" d="M86.3666 43.5438C86.0736 43.3582 85.8022 43.3582 85.5528 43.5438C85.331 43.2799 85.0596 43.1008 84.7389 43.0062C83.5803 42.8716 82.4273 42.9075 81.2802 43.1137C81.3653 42.9585 81.5008 42.8509 81.6871 42.7912C82.8401 42.6477 83.9929 42.6477 85.1459 42.7912C85.6299 42.9451 86.0368 43.1961 86.3666 43.5438Z" fill="#ADA7A9"/>
<path opacity="0.22" fill-rule="evenodd" clip-rule="evenodd" d="M30.4165 42.8988C29.3292 42.8631 28.2442 42.899 27.1612 43.0063C26.5808 43.3138 25.9704 43.4929 25.3301 43.5439C25.8099 43.1936 26.3523 42.9429 26.9578 42.7913C28.1478 42.6154 29.3006 42.6511 30.4165 42.8988Z" fill="#9F9D9E"/>
<path opacity="0.365" fill-rule="evenodd" clip-rule="evenodd" d="M61.5451 43.5438C60.5303 43.33 59.513 43.115 58.4933 42.8987C56.9291 42.8466 55.7424 43.4917 54.9328 44.834C54.8702 44.6602 54.7684 44.5168 54.6276 44.4039C54.4411 44.5387 54.2376 44.6106 54.0173 44.6189C55.7249 42.9077 57.7594 42.2985 60.1209 42.7912C60.665 42.9352 61.1396 43.1862 61.5451 43.5438Z" fill="#B9B7B7"/>
<path opacity="0.995" fill-rule="evenodd" clip-rule="evenodd" d="M14.547 43.9738C14.427 45.0791 14.6305 46.0826 15.1574 46.9843C15.1574 47.0559 15.1574 47.1277 15.1574 47.1993C15.1412 47.9048 15.2768 48.5499 15.5643 49.1346C15.7615 49.5997 15.931 50.1014 16.0729 50.6398C17.5426 47.9244 19.1363 45.3081 20.8541 42.7912C21.8714 42.6477 22.8887 42.6477 23.9059 42.7912C24.158 43.2466 24.0901 43.6408 23.7025 43.9738C23.3627 44.0278 23.0575 44.1712 22.7869 44.4039C22.555 44.9634 22.3855 45.5369 22.2783 46.1241C22.2783 46.1958 22.2783 46.2676 22.2783 46.3392C22.2105 46.3392 22.1426 46.3392 22.0748 46.3392C21.3306 46.6181 20.9917 47.1913 21.0576 48.0594C20.8185 48.0123 20.6151 48.0839 20.4472 48.2745C20.5748 48.4716 20.6427 48.6867 20.6507 48.9196C19.5622 51.1116 18.3414 53.2262 16.9885 55.263C15.8356 55.4064 14.6827 55.4064 13.5297 55.263C12.5572 51.4376 11.6756 47.567 10.8848 43.6513C10.8968 43.3425 10.9646 43.0559 11.0883 42.7912C12.1056 42.6477 13.1228 42.6477 14.1401 42.7912C14.4171 43.1318 14.5527 43.5261 14.547 43.9738Z" fill="#222222"/>
<path opacity="0.997" fill-rule="evenodd" clip-rule="evenodd" d="M30.4165 42.8986C32.9703 43.6211 34.3267 45.4132 34.4856 48.2744C34.4119 48.8722 34.2764 49.4454 34.0787 49.9946C31.1626 49.9946 28.2462 49.9946 25.3301 49.9946C25.2756 50.3385 25.3435 50.6251 25.5336 50.8548C26.5728 52.3159 27.9293 52.746 29.6027 52.1449C30.0934 52.1813 30.5343 52.0381 30.9251 51.7149C31.2476 51.8319 31.5528 51.9753 31.8407 52.1449C32.9644 53.0986 32.8964 53.8869 31.6372 54.5103C30.997 54.5613 30.3866 54.7404 29.8061 55.0479C28.4515 55.1554 27.0951 55.1911 25.737 55.1554C25.6693 55.1554 25.6013 55.1554 25.5336 55.1554C24.9411 54.4477 24.1952 54.0177 23.2956 53.8652C21.6938 51.7932 21.3548 49.4996 22.2783 46.9842C22.346 46.9842 22.414 46.9842 22.4818 46.9842C22.8472 46.7062 23.1863 46.3836 23.499 46.0166C23.4313 45.945 23.3633 45.8731 23.2956 45.8015C23.5157 45.5155 23.6514 45.193 23.7025 44.8339C24.0978 44.195 24.6402 43.765 25.3301 43.5437C25.9704 43.4927 26.5808 43.3136 27.1612 43.0061C28.2442 42.8988 29.3292 42.8629 30.4165 42.8986ZM30.4165 46.3391C30.7093 46.7881 30.845 47.2898 30.8234 47.8443C29.1158 47.9153 27.4202 47.8078 25.737 47.5218C26.0351 47.1403 26.3063 46.7459 26.5509 46.3391C26.6866 46.3391 26.7543 46.2675 26.7543 46.1241C28.0287 45.4852 29.2495 45.557 30.4165 46.3391Z" fill="#222222"/>
<path opacity="0.998" fill-rule="evenodd" clip-rule="evenodd" d="M61.5451 43.544C61.7699 43.7805 62.0411 43.924 62.3589 43.9741C62.5113 43.7524 62.6468 43.5014 62.7658 43.2215C63.7809 43.1142 64.7981 43.0782 65.8176 43.1139C65.4897 44.0803 65.3542 45.0838 65.4107 46.1244C65.2852 46.1482 65.1835 46.2199 65.1056 46.3394C65.0042 47.0527 64.9703 47.7694 65.0038 48.4897C64.7066 50.7331 64.2997 52.9553 63.7831 55.1557C62.7044 55.4058 61.6191 55.4415 60.5278 55.2632C60.4127 55.0493 60.277 54.8701 60.1209 54.7256C59.7175 54.6519 59.446 54.7953 59.3071 55.1557C59.2393 55.1557 59.1714 55.1557 59.1036 55.1557C58.0164 55.1914 56.9313 55.1555 55.8484 55.0482C55.2878 54.6282 54.6775 54.3773 54.0173 54.2956C52.6413 53.1662 51.9632 51.661 51.9827 49.7799C52.0224 47.7459 52.7007 46.0257 54.0173 44.6192C54.2376 44.6108 54.4411 44.539 54.6276 44.4041C54.7684 44.517 54.8701 44.6604 54.9328 44.8342C55.7424 43.492 56.9291 42.8469 58.4933 42.8989C59.513 43.1152 60.5303 43.3303 61.5451 43.544ZM58.4933 45.9093C60.0727 45.7934 61.09 46.5101 61.5451 48.0597C61.526 50.4706 60.407 51.9042 58.1881 52.3603C55.9415 51.6963 55.2634 50.1911 56.1535 47.8446C56.6811 46.817 57.4611 46.1719 58.4933 45.9093Z" fill="#222222"/>
<path opacity="0.996" fill-rule="evenodd" clip-rule="evenodd" d="M78.2284 44.834C78.0249 44.834 77.8215 44.834 77.618 44.834C76.862 46.0039 76.3194 47.2941 75.9904 48.7045C76.0052 49.0329 75.8695 49.2479 75.5835 49.3496C75.0063 48.9901 74.8706 49.1333 75.1766 49.7797C74.649 50.1175 74.4456 50.6192 74.5662 51.2849C73.362 53.6167 72.0055 55.8386 70.4971 57.9509C70.2259 57.9509 69.9545 57.9509 69.6833 57.9509C69.6833 58.1659 69.6833 58.3809 69.6833 58.596C69.4184 59.0953 69.0115 59.3819 68.4626 59.4561C67.1061 59.4561 65.7499 59.4561 64.3935 59.4561C63.8506 59.3843 63.4437 59.0976 63.1727 58.596C63.415 57.9362 63.7542 57.3628 64.19 56.8757C64.6148 56.5663 65.0895 56.4229 65.6142 56.4457C67.0083 56.928 68.0255 56.462 68.666 55.0479C68.487 54.7564 68.419 54.4338 68.4626 54.0803C68.6172 52.7697 68.346 51.6229 67.6487 50.6398C67.3798 49.5801 67.1763 48.505 67.0384 47.4143C67.1175 46.7578 66.982 46.1844 66.6315 45.6941C66.438 45.389 66.3702 45.0307 66.428 44.6189C66.3926 44.1112 66.3249 43.6096 66.2246 43.1137C67.3962 43.0522 68.549 43.124 69.6833 43.3287C69.6833 43.4003 69.6833 43.4722 69.6833 43.5438C69.667 44.2493 69.8027 44.8944 70.0902 45.4791C70.0322 46.1949 70.1679 46.84 70.4971 47.4143C70.7179 48.4048 70.9893 49.4083 71.3109 50.4248C72.9441 47.9431 74.5037 45.3984 75.9904 42.7912C77.0077 42.6477 78.0249 42.6477 79.0422 42.7912C79.2031 43.6369 78.9317 44.3179 78.2284 44.834Z" fill="#222222"/>
<path opacity="0.996" fill-rule="evenodd" clip-rule="evenodd" d="M88.6046 55.1554C87.5873 55.1554 86.5701 55.1554 85.5528 55.1554C85.5853 54.7901 85.5516 54.4316 85.4511 54.0803C85.3052 54.1973 85.2034 54.3407 85.1459 54.5103C84.6252 54.4867 84.1506 54.6299 83.7217 54.9404C82.645 55.1544 81.56 55.226 80.4664 55.1554C78.0606 54.3074 76.9076 52.5155 77.0077 49.7797C77.016 48.7525 77.1515 47.7491 77.4146 46.7692C77.5503 46.7692 77.618 46.6976 77.618 46.5542C78.1804 46.2428 78.5195 45.7412 78.6353 45.049C79.3378 44.1394 80.2196 43.4943 81.2802 43.1137C82.4273 42.9075 83.5803 42.8716 84.739 43.0062C85.0596 43.1008 85.331 43.2799 85.5528 43.5437C85.8022 43.3582 86.0736 43.3582 86.3666 43.5437C86.6752 43.5461 86.9127 43.6893 87.0787 43.9738C87.1491 43.6044 87.2508 43.2459 87.3839 42.8987C88.5307 42.6486 89.6837 42.6127 90.8426 42.7911C90.9488 42.9118 91.0166 43.0552 91.0461 43.2212C90.2733 47.2369 89.4595 51.215 88.6046 55.1554ZM83.3148 45.9091C85.166 45.7014 86.1833 46.5615 86.3666 48.4895C85.9686 51.5605 84.4088 52.6716 81.6871 51.8225C80.4467 50.3929 80.3449 48.8518 81.382 47.1993C81.9628 46.6129 82.6072 46.1828 83.3148 45.9091Z" fill="#222222"/>
<path fill-rule="evenodd" clip-rule="evenodd" d="M38.1478 39.6733C38.3797 39.9531 38.6509 40.204 38.9616 40.4259C38.7936 41.1788 39.031 41.788 39.6737 42.2537C39.7293 42.598 39.831 42.9205 39.9789 43.2214C39.8145 43.2876 39.6788 43.3951 39.572 43.5439C39.7366 43.8817 39.8045 44.2402 39.7754 44.6191C40.293 44.8272 40.7339 45.1857 41.0979 45.6942C41.1402 46.1838 41.3099 46.6496 41.6065 47.0919C41.3013 47.7394 41.1317 47.6319 41.0979 46.7694C40.7412 46.527 40.3681 46.312 39.9789 46.1243C39.6902 46.2329 39.5547 46.4479 39.572 46.7694C38.2479 46.1705 37.2306 45.2388 36.5202 43.974C36.1 43.9703 35.6931 43.8987 35.2994 43.7589C35.322 43.6263 35.3898 43.5187 35.5029 43.4364C35.1395 43.2676 34.8343 43.0169 34.5873 42.6838C34.3161 41.9671 34.0447 41.2502 33.7735 40.5335C33.4976 40.3442 33.1925 40.2724 32.858 40.3184C32.858 40.1034 32.858 39.8884 32.858 39.6733C34.6213 39.6733 36.3845 39.6733 38.1478 39.6733Z" fill="#009DE7"/>
<path fill-rule="evenodd" clip-rule="evenodd" d="M53.4069 42.6835C51.4474 44.8622 49.4469 47.0125 47.405 49.1344C47.3106 49.2622 47.2766 49.4056 47.3033 49.5645C46.9281 49.4131 46.8264 49.1265 46.9981 48.7044C47.7741 48.2797 48.2827 47.6346 48.524 46.7691C48.8632 46.2674 49.2701 45.8373 49.7447 45.4789C50.1372 45.3701 50.4761 45.1551 50.762 44.8338C50.9579 44.1975 51.2969 43.6959 51.7793 43.3286C52.1868 42.7949 52.7292 42.5798 53.4069 42.6835Z" fill="#106694"/>
<path opacity="0.884" fill-rule="evenodd" clip-rule="evenodd" d="M69.6833 43.3286C68.549 43.1239 67.3963 43.0521 66.2246 43.1136C66.3249 43.6094 66.3926 44.1111 66.428 44.6188C66.2718 44.4547 66.17 44.2397 66.1228 43.9737C66.0551 44.0453 65.9871 44.1171 65.9194 44.1887C65.8368 44.8859 65.6673 45.5309 65.4107 46.124C65.3542 45.0835 65.4897 44.0799 65.8177 43.1136C64.7981 43.0779 63.7809 43.1138 62.7658 43.2211C62.6468 43.501 62.5113 43.752 62.3589 43.9737C62.2934 43.4959 62.4291 43.1015 62.7658 42.791C64.956 42.8332 67.1261 42.8332 69.2764 42.791C69.5319 42.8807 69.6676 43.0598 69.6833 43.3286Z" fill="#A1999A"/>
<path opacity="0.804" fill-rule="evenodd" clip-rule="evenodd" d="M23.7025 43.9741C23.4551 44.3999 23.2856 44.8299 23.1939 45.2643C23.3379 45.0749 23.5076 44.9317 23.7025 44.8342C23.6514 45.1933 23.5157 45.5159 23.2956 45.8019C23.3633 45.8735 23.4313 45.9453 23.499 46.0169C23.1863 46.384 22.8472 46.7065 22.4818 46.9846C22.4818 46.8411 22.4818 46.6979 22.4818 46.5545C22.5168 46.3412 22.4488 46.198 22.2783 46.1244C22.3855 45.5372 22.555 44.9637 22.787 44.4042C23.0576 44.1715 23.3627 44.0281 23.7025 43.9741Z" fill="#BDB4B5"/>
<path opacity="0.145" fill-rule="evenodd" clip-rule="evenodd" d="M69.6833 43.5439C69.9708 44.1286 70.1065 44.7737 70.0902 45.4792C69.8027 44.8946 69.667 44.2495 69.6833 43.5439Z" fill="#919090"/>
<path opacity="0.467" fill-rule="evenodd" clip-rule="evenodd" d="M30.4165 46.3393C29.2495 45.5572 28.0288 45.4854 26.7543 46.1243C26.8744 45.8521 26.9761 45.5654 27.0595 45.2642C28.0768 45.5508 29.0941 45.5508 30.1113 45.2642C30.235 45.6198 30.3368 45.9783 30.4165 46.3393Z" fill="#B8B4B4"/>
<path opacity="0.992" fill-rule="evenodd" clip-rule="evenodd" d="M78.2284 44.834C78.2099 45.3066 78.3454 45.3782 78.6353 45.049C78.5196 45.7412 78.1804 46.2429 77.6181 46.5542C77.4824 46.5542 77.4146 46.6258 77.4146 46.7693C76.8907 47.3754 76.416 48.0205 75.9904 48.7045C76.3194 47.2942 76.862 46.004 77.6181 44.834C77.8215 44.834 78.025 44.834 78.2284 44.834Z" fill="#C2BCBC"/>
<path opacity="0.816" fill-rule="evenodd" clip-rule="evenodd" d="M14.547 43.9741C14.8251 44.936 15.0286 45.9395 15.1574 46.9846C14.6305 46.0829 14.427 45.0794 14.547 43.9741Z" fill="#B0B0AF"/>
<path opacity="0.439" fill-rule="evenodd" clip-rule="evenodd" d="M95.3186 46.9844C95.3453 46.8255 95.3113 46.6821 95.2169 46.5543C94.0548 46.8958 92.9358 46.824 91.8599 46.3393C92.0554 45.1332 92.3268 43.9505 92.6737 42.7913C93.8247 42.684 94.9776 42.6481 96.1324 42.6838C96.1117 44.1993 95.8405 45.6329 95.3186 46.9844Z" fill="#AE692E"/>
<path fill-rule="evenodd" clip-rule="evenodd" d="M92.6737 43.1138C93.691 43.1138 94.7082 43.1138 95.7255 43.1138C95.8004 44.3356 95.529 45.4464 94.9117 46.4468C94.0326 46.5541 93.151 46.59 92.2668 46.5543C92.3691 45.4019 92.5048 44.2549 92.6737 43.1138Z" fill="#FC940D"/>
<path opacity="0.435" fill-rule="evenodd" clip-rule="evenodd" d="M58.4933 45.9094C60.2564 45.4036 61.2737 46.1203 61.5451 48.0597C61.09 46.5102 60.0727 45.7935 58.4933 45.9094Z" fill="#918D8E"/>
<path fill-rule="evenodd" clip-rule="evenodd" d="M38.1478 39.6733C38.487 39.6733 38.8259 39.6733 39.1651 39.6733C39.2328 39.6733 39.3008 39.6733 39.3685 39.6733C39.4875 40.1941 39.7927 40.5526 40.2841 40.7485C40.3823 40.9523 40.4161 41.1674 40.3858 41.3936C40.1549 41.8763 40.0532 42.378 40.0806 42.8988C40.6352 43.4979 40.9744 44.2146 41.0979 45.0491C41.9111 45.6196 42.386 46.4081 42.5221 47.4145C42.6954 47.6448 42.8649 47.8598 43.0307 48.0596C43.4034 49.1515 43.5389 50.2983 43.4376 51.5001C43.8411 51.4263 44.1125 51.5697 44.2514 51.9301C43.8445 52.4318 43.4376 52.9337 43.0307 53.4353C42.895 53.5069 42.7595 53.5788 42.6238 53.6504C42.6238 53.5788 42.6238 53.5069 42.6238 53.4353C43.1949 52.2271 43.3646 50.9369 43.1324 49.5648C42.9967 49.2781 42.7933 49.0631 42.5221 48.9197C41.8291 49.4527 41.5239 50.1694 41.6065 51.07C41.4708 50.7834 41.3353 50.4965 41.1996 50.2099C40.8027 49.5033 40.3278 48.8582 39.7754 48.2746C39.7754 48.203 39.7754 48.1312 39.7754 48.0596C40.0145 48.1067 40.218 48.035 40.3858 47.8445C40.1097 47.482 39.8385 47.1237 39.572 46.7694C39.5547 46.4479 39.6902 46.2329 39.9789 46.1243C40.3681 46.312 40.7412 46.527 41.0979 46.7694C41.1317 47.6319 41.3013 47.7394 41.6065 47.0919C41.3099 46.6496 41.1402 46.1838 41.0979 45.6942C40.7339 45.1857 40.293 44.8272 39.7754 44.6191C39.8045 44.2402 39.7366 43.8817 39.572 43.5439C39.6788 43.3951 39.8145 43.2876 39.9789 43.2214C39.831 42.9205 39.7293 42.598 39.6737 42.2537C39.031 41.788 38.7936 41.1788 38.9616 40.4259C38.6509 40.204 38.3797 39.9531 38.1478 39.6733Z" fill="#0090E2"/>
<path fill-rule="evenodd" clip-rule="evenodd" d="M48.7274 41.6084C48.4636 42.1445 48.2601 42.718 48.1171 43.3286C48.2483 43.5751 48.4178 43.7901 48.6257 43.9737C48.7614 43.6871 48.8969 43.6871 49.0326 43.9737C49.0107 44.6483 49.2481 45.15 49.7447 45.479C49.2701 45.8374 48.8632 46.2675 48.524 46.7691C47.9411 47.2011 47.3985 47.7028 46.8964 48.2744C46.6439 47.8424 46.3047 47.4841 45.8791 47.1992C45.6913 46.0851 46.0305 45.1534 46.8964 44.4038C47.2548 43.2874 47.8652 42.3556 48.7274 41.6084Z" fill="#0076C6"/>
<path opacity="0.31" fill-rule="evenodd" clip-rule="evenodd" d="M66.6315 45.6943C66.982 46.1846 67.1175 46.7581 67.0384 47.4146C66.8286 46.8854 66.6929 46.3121 66.6315 45.6943Z" fill="#94908F"/>
<path opacity="0.82" fill-rule="evenodd" clip-rule="evenodd" d="M65.4108 46.124C65.425 46.968 65.2893 47.7563 65.0038 48.4894C64.9703 47.769 65.0043 47.0523 65.1056 46.3391C65.1835 46.2195 65.2852 46.1479 65.4108 46.124Z" fill="#B8B2B2"/>
<path opacity="0.063" fill-rule="evenodd" clip-rule="evenodd" d="M22.0749 46.3394C22.1426 46.3394 22.2106 46.3394 22.2783 46.3394C22.2783 46.4828 22.3461 46.5544 22.4818 46.5544C22.4818 46.6978 22.4818 46.841 22.4818 46.9844C22.414 46.9844 22.3461 46.9844 22.2783 46.9844C22.2783 46.841 22.2106 46.7694 22.0749 46.7694C22.0749 46.626 22.0749 46.4828 22.0749 46.3394Z" fill="#473E45"/>
<path fill-rule="evenodd" clip-rule="evenodd" d="M35.2994 43.7588C35.6931 43.8986 36.1 43.9702 36.5202 43.9738C37.2306 45.2386 38.2479 46.1704 39.572 46.7692C39.8385 47.1236 40.1097 47.4818 40.3858 47.8444C40.218 48.0349 40.0145 48.1065 39.7754 48.0594C39.5396 47.6831 39.2005 47.4681 38.7582 47.4143C37.5374 46.2676 36.3845 45.049 35.2994 43.7588Z" fill="#0681BA"/>
<path fill-rule="evenodd" clip-rule="evenodd" d="M91.8599 46.3394C92.9358 46.824 94.0548 46.8959 95.2169 46.5544C95.3113 46.6821 95.3453 46.8255 95.3186 46.9844C94.1455 47.2649 92.9925 47.2649 91.8599 46.9844C91.8599 46.7694 91.8599 46.5544 91.8599 46.3394Z" fill="#F9D5A8"/>
<path fill-rule="evenodd" clip-rule="evenodd" d="M40.3858 41.3936C41.5162 42.086 42.4657 42.982 43.2342 44.0814C43.427 44.1853 43.6305 44.221 43.8445 44.189C44.366 44.6431 44.7389 45.2166 44.9635 45.9092C45.1 46.0709 45.2695 46.1427 45.4722 46.1242C45.3169 46.2894 45.1135 46.3969 44.8618 46.4468C44.9749 46.5291 45.0427 46.6367 45.0653 46.7693C44.9517 47.0467 44.7483 47.2258 44.4549 47.3069C44.5611 47.4275 44.6288 47.571 44.6583 47.737C44.4327 48.1771 44.297 48.6429 44.2514 49.1347C44.0374 49.1667 43.8339 49.131 43.6411 49.0272C43.7747 48.5455 43.5713 48.2229 43.0307 48.0595C42.8649 47.8598 42.6954 47.6447 42.5221 47.4144C42.386 46.4081 41.9111 45.6196 41.0979 45.0491C40.9744 44.2146 40.6352 43.4979 40.0806 42.8988C40.0531 42.378 40.1549 41.8763 40.3858 41.3936Z" fill="#006FD1"/>
<path fill-rule="evenodd" clip-rule="evenodd" d="M51.7793 36.0176C51.8623 36.2634 51.998 36.4784 52.1862 36.6627C52.4743 36.3102 52.8134 36.1309 53.2035 36.1251C52.9323 36.3401 52.9323 36.5552 53.2035 36.7702C52.7699 36.8869 52.363 37.0661 51.9827 37.3078C51.6755 37.7398 51.3364 38.1339 50.9655 38.4904C51.0786 38.5728 51.1463 38.6803 51.1689 38.813C50.3063 39.711 49.4924 40.6427 48.7274 41.6084C47.8652 42.3556 47.2548 43.2874 46.8964 44.4038C46.0304 45.1534 45.6913 46.0851 45.8791 47.1992C46.3047 47.4841 46.6439 47.8424 46.8964 48.2744C46.5368 48.7986 46.2654 49.3721 46.0825 49.9946C45.9503 50.4107 45.8825 50.8408 45.8791 51.2848C45.6166 51.1648 45.4471 50.9498 45.3704 50.6397C45.1912 51.1803 44.886 51.6104 44.4549 51.9299C44.7393 51.2093 45.0445 50.4926 45.3704 49.7796C45.4044 49.2779 45.4382 48.776 45.4722 48.2744C45.4663 47.6789 45.3308 47.1771 45.0653 46.7691C45.0427 46.6365 44.9749 46.529 44.8618 46.4466C45.1135 46.3967 45.3169 46.2892 45.4722 46.1241C46.4172 44.4784 47.3328 42.83 48.2188 41.1783C48.3527 40.8326 48.251 40.5816 47.9136 40.4257C48.0929 40.2735 48.2284 40.0941 48.3205 39.8881C49.3246 38.4681 50.4776 37.1779 51.7793 36.0176Z" fill="#006ABE"/>
<path opacity="0.204" fill-rule="evenodd" clip-rule="evenodd" d="M70.0902 45.479C70.3256 46.0753 70.4613 46.7204 70.4971 47.4143C70.1679 46.8399 70.0322 46.1948 70.0902 45.479Z" fill="#9B9A95"/>
<path opacity="0.925" fill-rule="evenodd" clip-rule="evenodd" d="M22.0748 46.3394C22.0748 46.4828 22.0748 46.626 22.0748 46.7694C21.7027 47.5541 21.2279 48.2708 20.6507 48.9197C20.6427 48.6869 20.5748 48.4718 20.4472 48.2746C20.6151 48.0841 20.8185 48.0125 21.0576 48.0596C20.9916 47.1915 21.3306 46.6183 22.0748 46.3394Z" fill="#C3BEBF"/>
<path opacity="0.999" fill-rule="evenodd" clip-rule="evenodd" d="M91.8599 46.9844C92.9925 47.2648 94.1455 47.2648 95.3186 46.9844C95.3343 47.9438 95.1986 48.8756 94.9117 49.7798C94.7082 50.2098 94.5048 50.6399 94.3013 51.07C93.177 51.0009 92.0918 51.0726 91.046 51.285C90.9783 51.285 90.9103 51.285 90.8426 51.285C91.1828 49.8245 91.5217 48.3911 91.8599 46.9844Z" fill="#EFF0EB"/>
<path opacity="0.325" fill-rule="evenodd" clip-rule="evenodd" d="M26.5509 46.3393C26.3063 46.7461 26.0351 47.1405 25.737 47.5219C27.4202 47.8079 29.1158 47.9154 30.8234 47.8445C30.845 47.2899 30.7093 46.7883 30.4165 46.3393C31.0692 46.6777 31.3406 47.2512 31.2303 48.0595C29.2589 48.1309 27.2923 48.0591 25.3301 47.8445C25.6013 47.5578 25.6013 47.271 25.3301 46.9844C25.6329 46.5377 26.0398 46.3227 26.5509 46.3393Z" fill="#B9B5B5"/>
<path opacity="0.114" fill-rule="evenodd" clip-rule="evenodd" d="M15.1574 47.1992C15.4449 47.7839 15.5805 48.429 15.5643 49.1345C15.2768 48.5498 15.1412 47.9047 15.1574 47.1992Z" fill="#90908C"/>
<path opacity="0.923" fill-rule="evenodd" clip-rule="evenodd" d="M75.5835 49.3496C75.3243 50.0506 74.9853 50.6957 74.5662 51.2848C74.4456 50.6191 74.649 50.1174 75.1766 49.7796C74.8706 49.1332 75.0063 48.99 75.5835 49.3496Z" fill="#B2B0B1"/>
<path fill-rule="evenodd" clip-rule="evenodd" d="M45.0652 46.7695C45.3308 47.1774 45.4663 47.6793 45.4722 48.2748C45.4382 48.7764 45.4044 49.2783 45.3704 49.78C45.0445 50.493 44.7393 51.2097 44.4549 51.9303C44.3871 51.9303 44.3192 51.9303 44.2514 51.9303C44.1125 51.5699 43.8411 51.4265 43.4376 51.5002C43.5389 50.2984 43.4034 49.1516 43.0307 48.0597C43.5713 48.2231 43.7747 48.5457 43.6411 49.0274C43.8339 49.1312 44.0374 49.1669 44.2514 49.1349C44.297 48.6431 44.4327 48.1773 44.6583 47.7372C44.6288 47.5712 44.5611 47.4277 44.4549 47.3071C44.7483 47.226 44.9517 47.0469 45.0652 46.7695Z" fill="#007DD8"/>
<path opacity="0.055" fill-rule="evenodd" clip-rule="evenodd" d="M34.0787 49.9946C31.2663 50.2088 28.418 50.2804 25.5336 50.2097C25.5336 50.4247 25.5336 50.6397 25.5336 50.8548C25.3436 50.6251 25.2756 50.3385 25.3301 49.9946C28.2462 49.9946 31.1626 49.9946 34.0787 49.9946Z" fill="#7C7878"/>
<path fill-rule="evenodd" clip-rule="evenodd" d="M38.7582 47.4146C39.2005 47.4683 39.5396 47.6833 39.7754 48.0596C39.7754 48.1313 39.7754 48.2031 39.7754 48.2747C39.7754 48.5613 39.7754 48.8482 39.7754 49.1348C39.1988 49.5653 38.7242 50.1029 38.3512 50.7475C38.0882 50.8529 37.8168 50.8888 37.5374 50.8551C37.5677 51.0813 37.534 51.2963 37.4357 51.5001C36.8858 52.3319 36.2414 53.0486 35.5029 53.6505C35.0282 54.0089 34.6213 54.439 34.2821 54.9406C33.7967 55.1284 33.3898 55.4509 33.0614 55.9083C32.8685 56.0121 32.6651 56.0478 32.451 56.0158C34.7837 53.443 37.1572 50.8985 39.572 48.3822C39.2584 48.0874 38.987 47.7648 38.7582 47.4146Z" fill="#0366A0"/>
<path fill-rule="evenodd" clip-rule="evenodd" d="M39.7754 49.1348C39.7345 50.2974 39.5988 51.4442 39.3685 52.5753C38.8436 53.5618 38.2332 54.4936 37.5374 55.3707C37.5317 54.923 37.6674 54.5286 37.9443 54.188C37.6916 54.1211 37.4882 54.2286 37.334 54.5105C37.0479 54.2594 36.8107 54.331 36.6219 54.7256C36.4072 54.176 36.0343 53.8175 35.5029 53.6504C36.2414 53.0486 36.8858 52.3319 37.4357 51.5001C37.534 51.2963 37.5677 51.0812 37.5374 50.855C37.8168 50.8888 38.0882 50.8529 38.3512 50.7475C38.7242 50.1028 39.1988 49.5653 39.7754 49.1348Z" fill="#007ECF"/>
<path fill-rule="evenodd" clip-rule="evenodd" d="M42.6238 53.4351C42.3089 53.5041 42.1731 53.7191 42.2169 54.0802C41.8523 54.0514 41.5133 54.123 41.1996 54.2952C41.4851 53.2444 41.6206 52.1692 41.6065 51.0697C41.5239 50.1692 41.8291 49.4525 42.5221 48.9194C42.7933 49.0629 42.9967 49.2779 43.1324 49.5645C43.3646 50.9366 43.1949 52.2268 42.6238 53.4351Z" fill="#00A4EC"/>
<path fill-rule="evenodd" clip-rule="evenodd" d="M91.0461 51.2849C92.0918 51.0724 93.1771 51.0008 94.3013 51.0698C94.3013 51.1414 94.3013 51.2133 94.3013 51.2849C93.9557 51.2505 93.6165 51.2862 93.2841 51.3924C93.4584 51.5405 93.5939 51.7197 93.691 51.93C93.5677 52.405 93.432 52.8709 93.2841 53.3277C93.4719 53.7665 93.5396 54.2325 93.4875 54.7254C92.5356 54.7611 91.5862 54.7252 90.6392 54.6179C91.216 53.5347 91.3517 52.4239 91.0461 51.2849Z" fill="#118B0F"/>
<path opacity="0.11" fill-rule="evenodd" clip-rule="evenodd" d="M94.9117 49.7798C94.8183 50.5059 94.6826 51.2229 94.5048 51.9301C94.3209 51.7776 94.2531 51.5626 94.3014 51.285C94.3014 51.2134 94.3014 51.1416 94.3014 51.07C94.5048 50.6399 94.7083 50.2098 94.9117 49.7798Z" fill="#4E5D4D"/>
<path opacity="0.635" fill-rule="evenodd" clip-rule="evenodd" d="M31.8407 52.1453C31.5528 51.9756 31.2476 51.8322 30.9251 51.7152C30.5343 52.0384 30.0934 52.1816 29.6027 52.1453C30.0759 51.8331 30.5846 51.5462 31.1286 51.2852C31.5506 51.4082 31.7878 51.6948 31.8407 52.1453Z" fill="#AAA6A6"/>
<path opacity="0.999" fill-rule="evenodd" clip-rule="evenodd" d="M48.524 46.7695C48.2827 47.635 47.774 48.2801 46.9981 48.7048C46.8264 49.1269 46.9281 49.4136 47.3032 49.5649C49.926 52.229 52.5369 54.9528 55.1363 57.7361C55.2345 57.94 55.2683 58.155 55.238 58.3812C52.5923 58.4171 49.9473 58.3812 47.3032 58.2737C47.1169 58.2139 46.9814 58.1064 46.8963 57.9512C49.3746 58.2417 51.8161 58.0266 54.2207 57.3061C53.6712 56.5876 52.9929 56.0858 52.1862 55.8008C52.2181 55.5056 52.1841 55.2188 52.0844 54.9407C51.7935 54.9824 51.4883 54.9824 51.1689 54.9407C50.6249 53.9357 49.879 53.1474 48.9309 52.5754C48.7791 52.3096 48.7114 52.0227 48.7274 51.7153C48.3659 51.7768 48.0267 51.9202 47.7102 52.1453C46.8249 52.069 46.7232 51.7823 47.405 51.2852C47.5407 50.9986 47.5407 50.7117 47.405 50.4251C47.02 50.2896 46.6809 50.0746 46.3877 49.78C46.3098 49.8995 46.2081 49.9711 46.0825 49.995C46.2654 49.3725 46.5368 48.799 46.8963 48.2748C47.3985 47.7032 47.9411 47.2015 48.524 46.7695Z" fill="#0D73AC"/>
<path opacity="0.755" fill-rule="evenodd" clip-rule="evenodd" d="M67.6487 50.6396C68.346 51.6228 68.6172 52.7695 68.4626 54.0801C68.1688 52.9635 67.8976 51.8167 67.6487 50.6396Z" fill="#9A9898"/>
<path fill-rule="evenodd" clip-rule="evenodd" d="M39.7754 48.2744C40.3278 48.858 40.8027 49.5031 41.1996 50.2097C41.1996 51.0698 41.1996 51.9299 41.1996 52.7901C40.7347 53.4248 40.1921 53.9981 39.572 54.5103C39.1077 53.9181 39.0399 53.273 39.3685 52.575C39.5988 51.444 39.7345 50.2972 39.7754 49.1345C39.7754 48.8479 39.7754 48.5611 39.7754 48.2744Z" fill="#004097"/>
<path fill-rule="evenodd" clip-rule="evenodd" d="M45.8791 51.2847C46.1893 51.6537 46.3928 52.0838 46.4894 52.5749C46.4719 52.7891 46.5399 52.9682 46.6929 53.1125C46.2211 53.826 45.6787 54.4711 45.0652 55.0478C45.2512 55.3501 45.3867 55.6727 45.4722 56.0154C44.5837 55.2196 43.7699 54.3595 43.0307 53.4351C43.4376 52.9334 43.8445 52.4315 44.2514 51.9298C44.3192 51.9298 44.3871 51.9298 44.4549 51.9298C44.886 51.6103 45.1912 51.1802 45.3704 50.6396C45.4471 50.9497 45.6166 51.1648 45.8791 51.2847Z" fill="#004DA5"/>
<path fill-rule="evenodd" clip-rule="evenodd" d="M46.8964 57.951C46.3537 57.5209 45.8791 57.0192 45.4722 56.4458C46.1615 56.5081 46.7041 56.8307 47.0998 57.4134C47.6475 57.5059 48.1901 57.4699 48.7274 57.3059C48.9093 56.598 48.8754 55.8811 48.6257 55.1556C48.0145 54.5823 47.6076 53.8656 47.405 53.0053C47.2685 52.8436 47.099 52.7717 46.8964 52.7902C46.7606 52.7186 46.6251 52.6468 46.4894 52.5752C46.3928 52.0841 46.1893 51.654 45.8791 51.285C45.8825 50.841 45.9503 50.4109 46.0825 49.9948C46.2081 49.9709 46.3098 49.8993 46.3877 49.7798C46.6809 50.0744 47.0201 50.2894 47.405 50.4249C47.5407 50.7115 47.5407 50.9984 47.405 51.285C46.7232 51.7822 46.8249 52.0688 47.7102 52.1451C48.0267 51.92 48.3659 51.7766 48.7274 51.7151C48.7114 52.0226 48.7791 52.3094 48.9309 52.5752C49.879 53.1472 50.6249 53.9355 51.1689 54.9405C51.4883 54.9823 51.7935 54.9823 52.0845 54.9405C52.1841 55.2186 52.2181 55.5054 52.1862 55.8007C52.9929 56.0856 53.6712 56.5875 54.2207 57.3059C51.8161 58.0265 49.3746 58.2415 46.8964 57.951Z" fill="#0187DA"/>
<path opacity="0.771" fill-rule="evenodd" clip-rule="evenodd" d="M43.0307 53.4351C43.7699 54.3595 44.5837 55.2196 45.4722 56.0154C45.4722 56.087 45.4722 56.1589 45.4722 56.2305C45.4722 56.3021 45.4722 56.3739 45.4722 56.4455C44.6626 55.7333 43.9166 54.9448 43.2342 54.0802C43.0252 53.8025 42.8218 53.8025 42.6238 54.0802C42.6238 53.9367 42.6238 53.7935 42.6238 53.6501C42.7595 53.5785 42.895 53.5067 43.0307 53.4351Z" fill="#062D62"/>
<path fill-rule="evenodd" clip-rule="evenodd" d="M42.6238 53.4351C42.6238 53.5067 42.6238 53.5785 42.6238 53.6501C42.6238 53.7935 42.6238 53.9367 42.6238 54.0802C42.3526 54.5102 42.0134 54.8687 41.6065 55.1553C41.4031 55.1553 41.1996 55.1553 40.9962 55.1553C41.0639 54.8687 41.1319 54.5818 41.1996 54.2952C41.5133 54.1229 41.8523 54.0513 42.2169 54.0802C42.1731 53.7191 42.3088 53.5041 42.6238 53.4351Z" fill="#088CB3"/>
<path opacity="0.953" fill-rule="evenodd" clip-rule="evenodd" d="M23.2956 53.8652C24.1953 54.0177 24.9411 54.4478 25.5336 55.1554C24.6876 54.9034 23.9416 54.4733 23.2956 53.8652Z" fill="#B7B3B4"/>
<path fill-rule="evenodd" clip-rule="evenodd" d="M46.4894 52.5752C46.6251 52.6468 46.7606 52.7186 46.8963 52.7902C47.2904 53.2313 47.4939 53.7688 47.5067 54.403C47.3466 55.0074 47.1771 55.6166 46.9981 56.2307C46.511 56.3675 46.0024 56.3675 45.4722 56.2307C45.4722 56.1591 45.4722 56.0873 45.4722 56.0157C45.3867 55.6729 45.2512 55.3504 45.0652 55.0481C45.6787 54.4713 46.2211 53.8262 46.6929 53.1128C46.5399 52.9685 46.4719 52.7894 46.4894 52.5752Z" fill="#005FC2"/>
<path opacity="0.463" fill-rule="evenodd" clip-rule="evenodd" d="M31.6373 54.5103C29.7514 55.5919 27.7846 55.8069 25.7371 55.1553C27.0951 55.191 28.4516 55.1553 29.8062 55.0478C30.3866 54.7403 30.997 54.5612 31.6373 54.5103Z" fill="#999494"/>
<path opacity="0.188" fill-rule="evenodd" clip-rule="evenodd" d="M60.1209 54.7253C59.8827 54.907 59.6113 55.0502 59.3071 55.1554C59.4461 54.795 59.7175 54.6516 60.1209 54.7253Z" fill="#736F6F"/>
<path opacity="0.982" fill-rule="evenodd" clip-rule="evenodd" d="M90.8426 51.2851C90.9104 51.2851 90.9783 51.2851 91.0461 51.2851C91.3517 52.4241 91.2159 53.535 90.6392 54.6181C91.5862 54.7254 92.5356 54.7613 93.4875 54.7256C93.5396 54.2328 93.4719 53.7668 93.2841 53.3279C93.432 52.8712 93.5677 52.4052 93.691 51.9302C93.5939 51.7199 93.4584 51.5408 93.2841 51.3926C93.6165 51.2864 93.9557 51.2507 94.3013 51.2851C94.2531 51.5627 94.3209 51.7778 94.5048 51.9302C94.3433 52.8202 94.1398 53.6804 93.8944 54.5106C93.7384 54.6551 93.6027 54.8342 93.4875 55.0482C92.538 55.1916 91.5887 55.1916 90.6392 55.0482C90.5209 54.8561 90.453 54.6411 90.4357 54.4031C90.746 53.4634 90.8817 52.4957 90.8426 51.5002C90.8426 51.4285 90.8426 51.3567 90.8426 51.2851Z" fill="#017004"/>
<path opacity="0.467" fill-rule="evenodd" clip-rule="evenodd" d="M54.0173 54.2954C54.6775 54.3771 55.2878 54.6281 55.8484 55.048C56.9314 55.1553 58.0164 55.1912 59.1036 55.1555C57.9238 55.6821 56.7031 55.7181 55.4415 55.2631C54.8842 55.0424 54.4095 54.7199 54.0173 54.2954Z" fill="#A49D9D"/>
<path opacity="0.529" fill-rule="evenodd" clip-rule="evenodd" d="M85.1459 54.5103C83.6897 55.5904 82.1298 55.8055 80.4664 55.1554C81.56 55.226 82.645 55.1543 83.7217 54.9404C84.1506 54.6299 84.6252 54.4867 85.1459 54.5103Z" fill="#A6A0A2"/>
<path opacity="0.086" fill-rule="evenodd" clip-rule="evenodd" d="M88.6046 55.1557C87.5588 55.3682 86.4736 55.4398 85.3493 55.3708C85.4039 55.0269 85.3359 54.7403 85.1459 54.5106C85.2035 54.341 85.3052 54.1975 85.4511 54.0806C85.5516 54.4319 85.5853 54.7904 85.5528 55.1557C86.5701 55.1557 87.5873 55.1557 88.6046 55.1557Z" fill="#8C8484"/>
<path opacity="0.075" fill-rule="evenodd" clip-rule="evenodd" d="M90.8426 51.5C90.8817 52.4956 90.746 53.4632 90.4357 54.4029C90.453 54.641 90.5209 54.856 90.6391 55.048C91.5887 55.1914 92.538 55.1914 93.4875 55.048C93.6027 54.8341 93.7384 54.6549 93.8944 54.5104C93.929 54.7947 93.8613 55.0457 93.691 55.263C92.6059 55.4065 91.5207 55.4065 90.4357 55.263C90.312 54.9983 90.2442 54.7117 90.2322 54.4029C90.3946 53.397 90.5981 52.4294 90.8426 51.5Z" fill="#06410A"/>
<path fill-rule="evenodd" clip-rule="evenodd" d="M46.8964 52.7899C47.099 52.7715 47.2685 52.8433 47.405 53.005C47.6076 53.8653 48.0145 54.582 48.6257 55.1553C48.8754 55.8808 48.9093 56.5977 48.7274 57.3056C48.1901 57.4697 47.6475 57.5056 47.0998 57.4131C46.7041 56.8304 46.1615 56.5078 45.4722 56.4455C45.4722 56.3739 45.4722 56.3021 45.4722 56.2305C46.0024 56.3672 46.511 56.3672 46.9981 56.2305C47.1771 55.6163 47.3466 55.0071 47.5067 54.4027C47.4939 53.7686 47.2904 53.231 46.8964 52.7899Z" fill="#0071D0"/>
<path fill-rule="evenodd" clip-rule="evenodd" d="M41.1996 50.21C41.3353 50.4966 41.4708 50.7834 41.6065 51.0701C41.6206 52.1695 41.4851 53.2447 41.1996 54.2956C41.1319 54.5822 41.0639 54.869 40.9962 55.1557C40.5691 55.6045 40.2301 56.1061 39.9789 56.6609C39.7754 56.6609 39.572 56.6609 39.3685 56.6609C39.3685 56.8759 39.3685 57.091 39.3685 57.306C39.1651 57.306 38.9616 57.306 38.7582 57.306C38.5441 57.274 38.3407 57.3097 38.1478 57.4135C37.8257 57.7915 37.4866 58.1141 37.1305 58.3812C36.9948 58.3812 36.8593 58.3812 36.7236 58.3812C37.9757 56.7841 39.3321 55.2789 40.7927 53.8655C40.9872 53.5268 41.1229 53.1684 41.1996 52.7903C41.1996 51.9302 41.1996 51.0701 41.1996 50.21Z" fill="#006FC3"/>
<path opacity="0.827" fill-rule="evenodd" clip-rule="evenodd" d="M65.6142 56.4455C65.0895 56.4227 64.6148 56.5661 64.19 56.8755C64.4653 55.9419 64.9402 55.7987 65.6142 56.4455Z" fill="#919091"/>
<path fill-rule="evenodd" clip-rule="evenodd" d="M39.3685 52.5752C39.0399 53.2732 39.1077 53.9183 39.572 54.5105C40.1921 53.9983 40.7347 53.425 41.1996 52.7902C41.1229 53.1683 40.9872 53.5267 40.7927 53.8654C39.3321 55.2788 37.9757 56.784 36.7236 58.381C35.9657 58.3208 35.7283 57.8908 36.0115 57.0909C36.3553 56.3337 36.864 55.7602 37.5374 55.3706C38.2332 54.4935 38.8436 53.5618 39.3685 52.5752Z" fill="#0062C3"/>
<path opacity="0.757" fill-rule="evenodd" clip-rule="evenodd" d="M40.9962 55.1558C41.1996 55.1558 41.4031 55.1558 41.6065 55.1558C40.7249 56.2309 39.7754 57.2345 38.7581 58.1662C38.7581 57.8796 38.7581 57.5927 38.7581 57.3061C38.9616 57.3061 39.1651 57.3061 39.3685 57.3061C39.3685 57.091 39.3685 56.876 39.3685 56.661C39.572 56.661 39.7754 56.661 39.9789 56.661C40.2301 56.1062 40.5691 55.6045 40.9962 55.1558Z" fill="#0C587D"/>
<path fill-rule="evenodd" clip-rule="evenodd" d="M34.2822 54.9404C33.9863 55.5045 33.5794 55.9702 33.0614 56.3381C33.4934 56.5134 33.9003 56.7284 34.2822 56.9832C34.0443 57.4148 33.9088 57.8806 33.8752 58.3809C33.3459 58.7181 32.8032 59.0766 32.2476 59.4561C32.4858 60.2457 32.9945 60.6757 33.7735 60.7463C34.6608 60.2065 35.5763 59.7049 36.5202 59.2411C36.807 59.0112 37.0105 58.7243 37.1305 58.3809C37.4866 58.1139 37.8257 57.7913 38.1478 57.4133C38.3407 57.3094 38.5441 57.2737 38.7582 57.3058C38.7582 57.5924 38.7582 57.8793 38.7582 58.1659C37.9751 58.0625 37.5682 58.4209 37.5374 59.2411C37.334 59.2411 37.1305 59.2411 36.9271 59.2411C36.9271 59.4561 36.9271 59.6711 36.9271 59.8862C36.3232 59.9132 35.9163 60.2358 35.7063 60.8538C35.3894 60.8989 35.1181 61.0065 34.8925 61.1763C34.4036 61.1533 34.0307 61.3684 33.7735 61.8214C33.6594 61.7092 33.5237 61.6376 33.3666 61.6064C33.2309 61.7498 33.0954 61.893 32.9597 62.0365C32.5851 61.9038 32.1782 61.9038 31.739 62.0365C31.1862 61.944 30.7453 61.6574 30.4165 61.1763C30.4869 60.9192 30.5886 60.9192 30.7217 61.1763C30.8574 61.0329 30.8574 60.8897 30.7217 60.7463C30.3368 60.6108 29.9976 60.3958 29.7044 60.1012C28.8694 60.2304 28.4288 60.7323 28.382 61.6064C28.0428 61.6064 27.7038 61.6064 27.3647 61.6064C27.6292 60.9759 28.0361 60.474 28.5854 60.1012C29.0493 59.856 29.5242 59.6051 30.0096 59.3486C30.7192 58.3878 31.4991 57.492 32.3493 56.6607C32.4476 56.4568 32.4814 56.2418 32.4511 56.0156C32.6651 56.0476 32.8685 56.0119 33.0614 55.9081C33.3898 55.4507 33.7967 55.1282 34.2822 54.9404Z" fill="#0095E3"/>
<path opacity="0.706" fill-rule="evenodd" clip-rule="evenodd" d="M70.4971 57.9512C70.3421 58.3301 70.0707 58.5451 69.6833 58.5963C69.6833 58.3812 69.6833 58.1662 69.6833 57.9512C69.9545 57.9512 70.2259 57.9512 70.4971 57.9512Z" fill="#929090"/>
<path fill-rule="evenodd" clip-rule="evenodd" d="M35.5029 53.6504C36.0343 53.8175 36.4072 54.1759 36.6219 54.7255C36.8107 54.331 37.0479 54.2594 37.334 54.5105C37.4882 54.2286 37.6916 54.1211 37.9443 54.188C37.6674 54.5286 37.5317 54.9229 37.5374 55.3706C36.864 55.7603 36.3553 56.3338 36.0115 57.0909C35.7283 57.8908 35.9657 58.3209 36.7236 58.3811C36.8593 58.3811 36.9948 58.3811 37.1305 58.3811C37.0105 58.7245 36.807 59.0113 36.5201 59.2412C35.5763 59.705 34.6608 60.2067 33.7735 60.7464C32.9945 60.6759 32.4858 60.2458 32.2476 59.4562C32.8032 59.0767 33.3458 58.7182 33.8752 58.3811C33.9088 57.8807 34.0443 57.4149 34.2821 56.9834C33.9003 56.7286 33.4933 56.5135 33.0614 56.3383C33.5794 55.9704 33.9863 55.5046 34.2821 54.9406C34.6213 54.4389 35.0282 54.0088 35.5029 53.6504Z" fill="#0085DF"/>
<path opacity="0.98" fill-rule="evenodd" clip-rule="evenodd" d="M32.4511 56.0156C32.4814 56.2418 32.4476 56.4569 32.3493 56.6607C31.4991 57.492 30.7193 58.3879 30.0096 59.3486C29.5242 59.6051 29.0493 59.8561 28.5854 60.1012C29.8061 58.6676 31.0946 57.3058 32.4511 56.0156Z" fill="#0670A4"/>
<path opacity="0.722" fill-rule="evenodd" clip-rule="evenodd" d="M64.3935 59.4561C65.7499 59.4561 67.1061 59.4561 68.4626 59.4561C67.1078 60.0138 65.7513 60.0138 64.3935 59.4561Z" fill="#B4AEB0"/>
<path fill-rule="evenodd" clip-rule="evenodd" d="M34.8925 61.1762C34.8925 61.5347 34.8925 61.8929 34.8925 62.2514C34.721 62.6111 34.4498 62.8621 34.0787 63.004C31.5026 63.1115 28.9254 63.1474 26.3474 63.1115C26.4428 62.4357 26.782 61.9338 27.3647 61.6063C27.7038 61.6063 28.0428 61.6063 28.382 61.6063C28.4288 60.7322 28.8694 60.2303 29.7044 60.1011C29.9976 60.3957 30.3368 60.6107 30.7217 60.7462C30.8574 60.8896 30.8574 61.0328 30.7217 61.1762C30.5886 60.9191 30.4869 60.9191 30.4165 61.1762C30.7453 61.6573 31.1862 61.9439 31.739 62.0364C32.1782 61.9037 32.5851 61.9037 32.9597 62.0364C33.0954 61.8929 33.2309 61.7497 33.3666 61.6063C33.5237 61.6375 33.6594 61.7091 33.7735 61.8213C34.0307 61.3683 34.4036 61.1532 34.8925 61.1762Z" fill="#059EDB"/>
<path fill-rule="evenodd" clip-rule="evenodd" d="M38.7582 58.1658C37.5374 59.5994 36.249 60.9612 34.8925 62.2514C34.8925 61.8929 34.8925 61.5347 34.8925 61.1762C35.1181 61.0064 35.3894 60.8989 35.7063 60.8537C35.9163 60.2357 36.3232 59.9132 36.9271 59.8861C36.9271 59.671 36.9271 59.456 36.9271 59.241C37.1305 59.241 37.334 59.241 37.5374 59.241C37.5682 58.4208 37.9751 58.0624 38.7582 58.1658Z" fill="#0C6891"/>
</svg>
