<svg width="30" height="24" viewBox="0 0 30 24" fill="none" xmlns="http://www.w3.org/2000/svg">
<g filter="url(#filter0_d_1018_294)">
<path d="M9 14.9111H7.4C6.76348 14.9111 6.15303 14.7403 5.70294 14.4363C5.25286 14.1323 5 13.72 5 13.2901V12.2094M21 14.9111H22.6C23.2365 14.9111 23.847 14.7403 24.2971 14.4363C24.7471 14.1323 25 13.72 25 13.2901V12.2094M25 4.1041V3.0234C25 2.59347 24.7471 2.18115 24.2971 1.87714C23.847 1.57313 23.2365 1.40234 22.6 1.40234H21M9 1.40234H7.4C6.76348 1.40234 6.15303 1.57313 5.70294 1.87714C5.25286 2.18115 5 2.59347 5 3.0234V4.1041M21 6.13041V10.183M17 6.13041V10.183M13 6.13041V10.183M9 6.13041V10.183" stroke="#407BFF" stroke-miterlimit="10" stroke-linecap="round" stroke-linejoin="round" shape-rendering="crispEdges"/>
</g>
<defs>
<filter id="filter0_d_1018_294" x="0.5" y="0.902344" width="29" height="22.5088" filterUnits="userSpaceOnUse" color-interpolation-filters="sRGB">
<feFlood flood-opacity="0" result="BackgroundImageFix"/>
<feColorMatrix in="SourceAlpha" type="matrix" values="0 0 0 0 0 0 0 0 0 0 0 0 0 0 0 0 0 0 127 0" result="hardAlpha"/>
<feOffset dy="4"/>
<feGaussianBlur stdDeviation="2"/>
<feComposite in2="hardAlpha" operator="out"/>
<feColorMatrix type="matrix" values="0 0 0 0 0 0 0 0 0 0 0 0 0 0 0 0 0 0 0.25 0"/>
<feBlend mode="normal" in2="BackgroundImageFix" result="effect1_dropShadow_1018_294"/>
<feBlend mode="normal" in="SourceGraphic" in2="effect1_dropShadow_1018_294" result="shape"/>
</filter>
</defs>
</svg>
